<?xml version="1.0" standalone="no"?>
<!DOCTYPE svg PUBLIC "-//W3C//DTD SVG 20010904//EN"
 "http://www.w3.org/TR/2001/REC-SVG-20010904/DTD/svg10.dtd">
<svg version="1.0" xmlns="http://www.w3.org/2000/svg"
 width="120.000000pt" height="120.000000pt" viewBox="0 0 120.000000 120.000000"
 preserveAspectRatio="xMidYMid meet">

<g transform="translate(0.000000,120.000000) scale(0.100000,-0.100000)"
fill="#000000" stroke="none">
<path d="M202 997 c-22 -23 -22 -29 -22 -331 l0 -307 25 -24 c22 -23 32 -25
110 -25 l85 0 0 -45 c0 -32 6 -51 20 -65 19 -19 33 -20 311 -20 274 0 291 1
283 18 -13 30 -16 89 -5 96 8 5 11 94 11 282 0 333 8 314 -130 314 l-90 0 0
48 c0 83 5 82 -307 82 -269 0 -270 0 -291 -23z m559 -7 c14 -8 19 -21 19 -55
l0 -44 -175 -3 c-160 -3 -175 -5 -189 -23 -12 -16 -15 -57 -16 -212 l0 -193
-55 0 -55 0 -2 203 -3 202 -2 -200 -3 -200 -35 -11 c-19 -6 -37 -9 -40 -6 -3
3 -5 119 -5 259 0 240 1 254 20 273 19 19 33 20 271 20 153 0 258 -4 270 -10z
m228 -144 c8 -9 11 -88 9 -267 l-3 -254 -245 0 -245 0 -5 205 -6 205 -2 -207
c-2 -198 -3 -208 -21 -208 -11 0 -26 -3 -35 -6 -14 -6 -16 21 -16 258 0 192 3
267 12 276 19 19 541 17 557 -2z m-589 -426 c0 -5 -17 -11 -37 -11 l-38 -2 33
-6 c58 -11 40 -26 -38 -32 l-75 -5 78 -2 c104 -3 101 -22 -5 -22 -62 0 -86 4
-100 17 -22 20 -23 31 -1 55 13 15 31 18 100 18 49 0 83 -4 83 -10z m580 -130
c0 -6 -80 -10 -220 -10 -140 0 -220 -4 -220 -10 0 -6 78 -10 215 -10 137 0
215 -4 215 -10 0 -6 -92 -11 -252 -12 l-253 -2 254 -6 c191 -4 255 -8 259 -17
3 -10 -53 -13 -255 -13 -218 0 -262 2 -281 16 -26 18 -28 46 -6 68 13 14 53
16 280 16 169 0 264 -4 264 -10z"/>
<path d="M283 925 c0 -22 2 -30 4 -17 2 12 2 30 0 40 -3 9 -5 -1 -4 -23z"/>
<path d="M492 790 c0 -19 2 -27 5 -17 2 9 2 25 0 35 -3 9 -5 1 -5 -18z"/>
<path d="M617 753 c-4 -3 -7 -37 -7 -75 l0 -68 140 0 140 0 -2 58 -1 57 -6
-50 -6 -50 -125 0 -125 0 -3 58 -3 57 111 0 c67 0 110 4 110 10 0 11 -212 14
-223 3z"/>
<path d="M703 703 c26 -2 68 -2 95 0 26 2 4 3 -48 3 -52 0 -74 -1 -47 -3z"/>
<path d="M713 663 c20 -2 54 -2 75 0 20 2 3 4 -38 4 -41 0 -58 -2 -37 -4z"/>
</g>
</svg>
