<?xml version="1.0" standalone="no"?>
<!DOCTYPE svg PUBLIC "-//W3C//DTD SVG 20010904//EN"
 "http://www.w3.org/TR/2001/REC-SVG-20010904/DTD/svg10.dtd">
<svg version="1.0" xmlns="http://www.w3.org/2000/svg"
 width="120.000000pt" height="120.000000pt" viewBox="0 0 120.000000 120.000000"
 preserveAspectRatio="xMidYMid meet">

<g transform="translate(0.000000,120.000000) scale(0.100000,-0.100000)"
fill="#000000" stroke="none">
<path d="M817 1118 c-8 -18 -31 -48 -50 -66 -38 -33 -54 -70 -43 -98 9 -24 39
-12 47 18 4 15 26 45 49 67 35 33 41 45 38 72 -4 44 -24 48 -41 7z"/>
<path d="M917 1074 c-4 -4 -7 -14 -7 -22 0 -9 -16 -30 -35 -48 -47 -43 -48
-106 -1 -88 9 3 16 13 16 22 0 8 16 31 36 50 26 25 34 41 32 60 -3 26 -26 40
-41 26z"/>
<path d="M578 798 c-3 -56 -5 -63 -23 -60 -10 2 -33 15 -49 29 -25 21 -37 24
-75 20 -30 -3 -51 -12 -63 -27 -16 -20 -27 -22 -103 -22 -89 0 -126 -15 -139
-56 -3 -9 -16 -22 -28 -27 -13 -6 -27 -20 -33 -32 -5 -13 -20 -23 -35 -25 -24
-3 -25 -5 -25 -83 0 -68 4 -88 29 -137 16 -32 39 -67 52 -79 35 -32 30 -39
-26 -39 -33 0 -52 -5 -56 -13 -8 -21 31 -102 61 -125 28 -22 31 -22 535 -22
504 0 507 0 535 22 30 23 69 104 61 125 -4 9 -27 13 -79 13 -41 0 -76 2 -79 5
-14 15 21 88 55 116 66 54 107 167 107 291 0 66 -30 98 -94 98 l-45 0 -3 43
-3 42 -237 3 -237 2 -3 -62z m430 -216 c2 -213 1 -237 -17 -278 l-20 -44 -154
0 -155 0 -18 38 c-17 32 -19 67 -22 266 -2 126 -1 235 2 243 5 11 41 13 193
11 l188 -3 3 -233z m-523 138 c10 -11 25 -20 34 -20 33 0 61 -30 61 -66 l0
-34 -235 0 c-129 0 -235 2 -235 5 0 3 11 10 25 15 14 5 29 20 34 33 14 37 39
53 62 39 23 -15 52 -15 65 -2 6 6 21 6 43 -3 28 -10 35 -10 39 2 16 48 76 66
107 31z m663 -44 c7 -88 -44 -256 -78 -256 -6 0 -10 61 -10 151 l0 150 43 -3
c41 -3 42 -4 45 -42z m-565 -248 c2 -68 7 -133 12 -145 l7 -23 -198 0 c-224 0
-227 1 -293 86 -41 53 -60 105 -61 162 l0 42 264 0 264 0 5 -122z m557 -214
c0 -12 -24 -50 -39 -61 -23 -18 -979 -18 -1002 0 -15 11 -39 49 -39 61 0 3
243 6 540 6 297 0 540 -3 540 -6z"/>
</g>
</svg>
