<?xml version="1.0" standalone="no"?>
<!DOCTYPE svg PUBLIC "-//W3C//DTD SVG 20010904//EN"
 "http://www.w3.org/TR/2001/REC-SVG-20010904/DTD/svg10.dtd">
<svg version="1.0" xmlns="http://www.w3.org/2000/svg"
 width="100.000000pt" height="100.000000pt" viewBox="0 0 100.000000 100.000000"
 preserveAspectRatio="xMidYMid meet">

<g transform="translate(0.000000,100.000000) scale(0.100000,-0.100000)"
fill="#000000" stroke="none">
<path d="M550 940 c-14 -4 -44 -17 -68 -30 -36 -19 -48 -21 -82 -12 -60 15
-130 -7 -130 -42 0 -6 28 -37 63 -69 l62 -58 -24 -18 c-17 -13 -22 -25 -18
-40 4 -15 -3 -28 -25 -46 -53 -45 -108 -118 -148 -197 -64 -128 -65 -210 -4
-277 58 -65 174 -101 324 -101 224 0 370 83 370 209 0 90 -78 244 -170 337
-40 41 -54 62 -52 79 2 13 -2 26 -7 30 -19 11 -12 26 45 85 l56 59 -22 31
c-35 49 -114 78 -170 60z m115 -100 l27 -10 -33 -38 c-19 -21 -43 -51 -54 -66
-16 -21 -31 -28 -72 -33 -72 -8 -99 1 -112 37 -5 17 -19 44 -30 59 l-21 28 51
7 c38 5 57 3 75 -9 33 -21 59 -19 91 10 32 27 41 29 78 15z m-165 -165 c30 0
72 4 93 9 25 5 37 5 37 -3 0 -22 -47 -35 -130 -35 -83 0 -130 13 -130 35 0 8
12 8 38 3 20 -5 62 -9 92 -9z m179 -84 c102 -100 180 -262 168 -351 -11 -84
-90 -139 -228 -161 -168 -26 -337 8 -387 79 -65 90 -19 265 103 400 l52 57 74
-3 c44 -1 88 4 109 12 53 20 55 20 109 -33z"/>
<path d="M540 527 c0 -7 -13 -23 -30 -35 -54 -40 -32 -121 36 -138 22 -6 34
-30 34 -71 0 -28 -5 -28 -38 -3 -22 18 -28 19 -40 7 -21 -22 1 -55 54 -77 24
-11 44 -24 44 -30 0 -16 30 -12 36 5 4 8 21 30 40 49 54 54 42 105 -31 137
-36 16 -43 24 -48 56 -4 20 -5 38 -3 40 2 2 15 -6 29 -18 27 -21 47 -19 47 5
0 18 -30 43 -62 51 -15 4 -29 13 -32 21 -7 18 -36 18 -36 1z m14 -89 c11 -41
8 -52 -9 -38 -16 13 -21 60 -6 60 5 0 11 -10 15 -22z m97 -117 c20 -16 22 -23
13 -38 -18 -29 -44 -29 -44 0 0 14 -3 32 -6 41 -8 22 9 20 37 -3z"/>
</g>
</svg>
