<?xml version="1.0" standalone="no"?>
<!DOCTYPE svg PUBLIC "-//W3C//DTD SVG 20010904//EN"
 "http://www.w3.org/TR/2001/REC-SVG-20010904/DTD/svg10.dtd">
<svg version="1.0" xmlns="http://www.w3.org/2000/svg"
 width="120.000000pt" height="120.000000pt" viewBox="0 0 120.000000 120.000000"
 preserveAspectRatio="xMidYMid meet">

<g transform="translate(0.000000,120.000000) scale(0.100000,-0.100000)"
fill="#000000" stroke="none">
<path d="M529 1117 c-40 -27 -83 -88 -99 -141 -10 -34 -9 -41 9 -60 l20 -21
-47 -27 c-61 -34 -86 -61 -121 -134 -26 -54 -171 -471 -171 -492 0 -9 136 -62
157 -62 5 0 19 22 31 49 21 50 49 82 39 45 -3 -11 -7 -55 -9 -99 l-3 -80 259
-3 c143 -1 263 1 267 5 5 5 5 49 1 100 -4 50 -4 89 1 86 4 -2 17 -27 29 -54
12 -27 27 -49 32 -49 13 0 147 48 155 55 7 8 -137 430 -170 499 -35 73 -60
100 -121 134 l-47 27 20 21 c18 19 19 26 9 60 -27 91 -103 164 -170 164 -22 0
-51 -9 -71 -23z m115 -21 c51 -21 119 -131 69 -111 -58 22 -168 22 -227 -1
-16 -6 -17 -4 -11 17 13 40 46 80 79 95 40 17 49 17 90 0z m49 -137 c20 -5 37
-16 37 -23 0 -13 -116 -126 -129 -126 -14 0 -131 113 -131 126 0 29 147 44
223 23z m-93 -189 c6 0 35 23 64 50 l53 50 53 -27 c88 -47 109 -85 216 -412
30 -91 53 -170 50 -176 -2 -7 -17 -15 -33 -18 -15 -4 -38 -9 -50 -13 -20 -6
-27 3 -67 87 -43 91 -44 98 -51 222 -5 98 -11 130 -21 134 -8 3 -16 4 -18 2
-4 -4 9 -169 20 -256 l6 -53 -56 0 c-43 0 -56 -3 -56 -15 0 -12 13 -15 55 -15
62 0 58 7 70 -137 l6 -72 -241 0 -241 0 6 72 c12 144 8 137 70 137 42 0 55 3
55 15 0 12 -13 15 -56 15 l-56 0 6 53 c13 106 25 252 21 255 -2 3 -11 2 -19
-1 -10 -4 -16 -36 -21 -134 -7 -124 -8 -131 -51 -222 -40 -84 -47 -93 -67 -87
-12 4 -35 9 -50 13 -16 3 -31 11 -33 18 -3 6 20 86 49 176 108 326 129 365
217 412 l53 27 53 -50 c29 -27 58 -50 64 -50z"/>
<path d="M380 780 c0 -5 5 -10 10 -10 6 0 10 5 10 10 0 6 -4 10 -10 10 -5 0
-10 -4 -10 -10z"/>
<path d="M800 780 c0 -5 5 -10 10 -10 6 0 10 5 10 10 0 6 -4 10 -10 10 -5 0
-10 -4 -10 -10z"/>
<path d="M380 720 c0 -5 5 -10 10 -10 6 0 10 5 10 10 0 6 -4 10 -10 10 -5 0
-10 -4 -10 -10z"/>
<path d="M590 720 c0 -5 5 -10 10 -10 6 0 10 5 10 10 0 6 -4 10 -10 10 -5 0
-10 -4 -10 -10z"/>
<path d="M800 720 c0 -5 5 -10 10 -10 6 0 10 5 10 10 0 6 -4 10 -10 10 -5 0
-10 -4 -10 -10z"/>
<path d="M590 660 c0 -5 5 -10 10 -10 6 0 10 5 10 10 0 6 -4 10 -10 10 -5 0
-10 -4 -10 -10z"/>
<path d="M590 600 c0 -5 5 -10 10 -10 6 0 10 5 10 10 0 6 -4 10 -10 10 -5 0
-10 -4 -10 -10z"/>
<path d="M590 540 c0 -5 5 -10 10 -10 6 0 10 5 10 10 0 6 -4 10 -10 10 -5 0
-10 -4 -10 -10z"/>
<path d="M590 480 c0 -5 5 -10 10 -10 6 0 10 5 10 10 0 6 -4 10 -10 10 -5 0
-10 -4 -10 -10z"/>
<path d="M590 420 c0 -5 5 -10 10 -10 6 0 10 5 10 10 0 6 -4 10 -10 10 -5 0
-10 -4 -10 -10z"/>
<path d="M590 360 c0 -5 5 -10 10 -10 6 0 10 5 10 10 0 6 -4 10 -10 10 -5 0
-10 -4 -10 -10z"/>
<path d="M590 300 c0 -5 5 -10 10 -10 6 0 10 5 10 10 0 6 -4 10 -10 10 -5 0
-10 -4 -10 -10z"/>
<path d="M590 240 c0 -5 5 -10 10 -10 6 0 10 5 10 10 0 6 -4 10 -10 10 -5 0
-10 -4 -10 -10z"/>
<path d="M590 180 c0 -5 5 -10 10 -10 6 0 10 5 10 10 0 6 -4 10 -10 10 -5 0
-10 -4 -10 -10z"/>
</g>
</svg>
