<svg width="129" height="128" viewBox="0 0 129 128" fill="none" xmlns="http://www.w3.org/2000/svg">
<path fill-rule="evenodd" clip-rule="evenodd" d="M64.4993 10.6667C58.3263 10.6655 52.2847 12.4497 47.1028 15.8043C41.9209 19.159 37.8198 23.9408 35.294 29.5734C34.9347 30.3809 34.5667 31.1845 34.19 31.9841L34.0833 31.9894C33.742 32.0001 33.278 32.0001 32.4993 32.0001C26.8414 32.0001 21.4152 34.2477 17.4144 38.2485C13.4136 42.2492 11.166 47.6755 11.166 53.3334C11.166 58.9914 13.4136 64.4176 17.4144 68.4184C21.4152 72.4191 26.8414 74.6667 32.4993 74.6667H33.4167L44.0833 64.0001H32.4993C29.6704 64.0001 26.9573 62.8763 24.9569 60.8759C22.9565 58.8755 21.8327 56.1624 21.8327 53.3334C21.8327 50.5044 22.9565 47.7913 24.9569 45.7909C26.9573 43.7906 29.6704 42.6667 32.4993 42.6667H32.8407C33.95 42.6667 35.2407 42.6721 36.3073 42.4534C37.6351 42.2263 38.9043 41.7368 40.0407 41.0134C41.326 40.1814 42.2113 39.1467 42.8833 38.2027C43.2951 37.5947 43.6538 36.9523 43.9553 36.2827C44.2398 35.689 44.5882 34.9281 45.0007 34.0001L45.022 33.9467C46.7042 30.1876 49.4384 26.9956 52.8945 24.7558C56.3506 22.5161 60.381 21.3243 64.4993 21.3243C68.6177 21.3243 72.6481 22.5161 76.1042 24.7558C79.5603 26.9956 82.2944 30.1876 83.9767 33.9467L84.0033 34.0001C84.4122 34.9245 84.7589 35.6854 85.0433 36.2827C85.2887 36.8001 85.6513 37.5521 86.1153 38.2027C86.7873 39.1414 87.6673 40.1814 88.958 41.0187C90.2487 41.8507 91.5553 42.2294 92.6913 42.4587C93.758 42.6721 95.0487 42.6721 96.158 42.6721L96.4993 42.6667C99.3283 42.6667 102.041 43.7906 104.042 45.7909C106.042 47.7913 107.166 50.5044 107.166 53.3334C107.166 56.1624 106.042 58.8755 104.042 60.8759C102.041 62.8763 99.3283 64.0001 96.4993 64.0001H84.9153L95.582 74.6667H96.4993C102.157 74.6667 107.584 72.4191 111.584 68.4184C115.585 64.4176 117.833 58.9914 117.833 53.3334C117.833 47.6755 115.585 42.2492 111.584 38.2485C107.584 34.2477 102.157 32.0001 96.4993 32.0001C95.7207 32.0001 95.2567 32.0001 94.9153 31.9894H94.8087L94.6753 31.7068C94.3453 30.9986 94.0217 30.2875 93.7047 29.5734C91.1789 23.9408 87.0778 19.159 81.8959 15.8043C76.714 12.4497 70.6724 10.6655 64.4993 10.6667Z" fill="#336BAD"/>
<path d="M64.5005 64.0001L60.7298 60.2294L64.5005 56.4587L68.2711 60.2294L64.5005 64.0001ZM69.8338 112C69.8338 113.415 69.2719 114.771 68.2717 115.771C67.2715 116.772 65.915 117.333 64.5005 117.333C63.086 117.333 61.7294 116.772 60.7292 115.771C59.7291 114.771 59.1672 113.415 59.1672 112H69.8338ZM39.3965 81.5627L60.7298 60.2294L68.2711 67.7707L46.9378 89.1041L39.3965 81.5627ZM68.2711 60.2294L89.6045 81.5627L82.0632 89.1041L60.7298 67.7707L68.2711 60.2294ZM69.8338 64.0001V112H59.1672V64.0001H69.8338Z" fill="#7DA7D9"/>
</svg>
