<svg width="184" height="180" viewBox="0 0 184 180" fill="none" xmlns="http://www.w3.org/2000/svg">
<g id="image-viewer/pana">
<g id="background-complete">
<path id="Vector" d="M160.669 162.411L154.698 179.895H171.52L164.747 162.286L166.478 153.464H158.361L160.669 162.411Z" fill="#EBEBEB"/>
<path id="Vector_2" d="M173.534 141.793C173.534 141.793 173.534 141.818 173.485 141.858L173.324 142.027L172.695 142.669C172.553 142.806 172.404 142.959 172.235 143.129C172.065 143.298 171.904 143.496 171.718 143.702C171.355 144.105 170.912 144.569 170.508 145.122C170.286 145.396 170.06 145.678 169.818 145.973C169.576 146.267 169.363 146.602 169.12 146.929C168.624 147.582 168.16 148.329 167.66 149.099C166.615 150.804 165.694 152.583 164.905 154.42C164.143 156.268 163.513 158.168 163.017 160.104C162.811 161 162.614 161.851 162.476 162.658C162.404 163.061 162.323 163.464 162.271 163.828C162.218 164.191 162.178 164.566 162.129 164.913C162.025 165.598 161.996 166.232 161.944 166.78C161.944 167.059 161.899 167.313 161.883 167.551C161.867 167.789 161.883 168.003 161.859 168.2C161.859 168.58 161.831 168.878 161.823 169.096C161.823 169.189 161.823 169.269 161.823 169.33C161.828 169.357 161.828 169.384 161.823 169.411C161.819 169.384 161.819 169.357 161.823 169.33C161.823 169.265 161.823 169.189 161.823 169.096C161.823 168.878 161.823 168.576 161.823 168.196C161.823 167.999 161.823 167.793 161.823 167.547C161.823 167.301 161.851 167.051 161.867 166.776C161.908 166.224 161.932 165.59 162.029 164.897C162.069 164.55 162.113 164.187 162.158 163.807C162.202 163.428 162.287 163.041 162.351 162.633C162.472 161.827 162.678 160.967 162.884 160.064C163.371 158.117 164 156.208 164.764 154.351C165.551 152.508 166.475 150.725 167.527 149.018C168.035 148.244 168.503 147.502 169.008 146.848C169.254 146.521 169.475 146.191 169.718 145.896L170.415 145.049C170.847 144.5 171.295 144.048 171.666 143.637C171.856 143.435 172.029 143.234 172.194 143.072L172.666 142.624L173.32 142.007L173.493 141.85C173.505 141.83 173.519 141.811 173.534 141.793Z" fill="#EBEBEB"/>
<path id="Vector_3" d="M178.443 150.104C178.26 150.083 178.079 150.047 177.903 149.995C177.733 149.951 177.523 149.902 177.277 149.862C177.031 149.822 176.753 149.757 176.438 149.729C176.124 149.701 175.785 149.652 175.414 149.64C175.042 149.628 174.651 149.64 174.236 149.64C173.336 149.674 172.44 149.788 171.561 149.983C170.684 150.189 169.827 150.471 168.999 150.826C168.624 151.004 168.261 151.165 167.942 151.351C167.624 151.536 167.325 151.706 167.059 151.875C166.793 152.044 166.567 152.214 166.361 152.355C166.185 152.481 166.015 152.615 165.853 152.758C165.716 152.881 165.569 152.991 165.413 153.089C165.537 152.951 165.672 152.822 165.816 152.706C165.973 152.562 166.137 152.427 166.309 152.303C166.51 152.149 166.712 151.964 166.998 151.794C167.282 151.596 167.577 151.414 167.882 151.25C168.226 151.05 168.58 150.868 168.943 150.705C169.776 150.336 170.642 150.044 171.529 149.834C172.42 149.639 173.328 149.528 174.24 149.503C174.643 149.503 175.046 149.503 175.45 149.535C175.795 149.554 176.138 149.591 176.479 149.648C176.797 149.684 177.076 149.757 177.322 149.805C177.533 149.847 177.742 149.902 177.947 149.971C178.115 150.004 178.281 150.048 178.443 150.104Z" fill="#EBEBEB"/>
<path id="Vector_4" d="M169.968 136.694C169.921 136.869 169.857 137.039 169.778 137.203C169.645 137.525 169.456 138.009 169.238 138.578C168.672 140.1 168.214 141.66 167.866 143.246C167.527 144.833 167.302 146.443 167.193 148.062C167.148 148.684 167.124 149.192 167.116 149.539C167.119 149.72 167.107 149.9 167.08 150.079C167.053 149.901 167.042 149.72 167.047 149.539C167.047 149.188 167.047 148.684 167.067 148.058C167.143 146.43 167.354 144.811 167.697 143.217C168.041 141.622 168.518 140.058 169.125 138.542C169.359 137.961 169.561 137.497 169.718 137.186C169.787 137.015 169.87 136.851 169.968 136.694Z" fill="#EBEBEB"/>
<path id="Vector_5" d="M175.231 134.673C175.144 134.815 175.046 134.95 174.936 135.076C174.735 135.334 174.452 135.718 174.13 136.194C172.371 138.689 171.023 141.45 170.136 144.371C169.966 144.931 169.837 145.387 169.757 145.706C169.721 145.873 169.671 146.036 169.607 146.194C169.624 146.024 169.652 145.856 169.692 145.69C169.753 145.367 169.862 144.903 170.019 144.338C170.426 142.862 170.966 141.425 171.633 140.046C172.307 138.669 173.104 137.356 174.013 136.121C174.364 135.649 174.662 135.278 174.88 135.032C174.986 134.902 175.103 134.782 175.231 134.673Z" fill="#EBEBEB"/>
<path id="Vector_6" d="M182.179 136.194C182.05 136.275 181.915 136.347 181.775 136.408C181.501 136.533 181.11 136.722 180.626 136.964C179.371 137.596 178.159 138.308 176.995 139.094C175.84 139.891 174.737 140.761 173.695 141.7C173.292 142.059 172.977 142.358 172.759 142.568C172.653 142.683 172.535 142.787 172.408 142.878C172.496 142.748 172.597 142.627 172.711 142.519C172.912 142.297 173.219 141.983 173.61 141.608C175.659 139.66 178.007 138.054 180.565 136.851C181.053 136.625 181.457 136.448 181.739 136.343C181.88 136.278 182.027 136.228 182.179 136.194Z" fill="#EBEBEB"/>
<path id="Vector_7" d="M183.558 139.982C183.435 140.094 183.3 140.193 183.155 140.276C182.881 140.458 182.469 140.704 181.945 140.99C180.594 141.734 179.181 142.357 177.721 142.854C176.258 143.342 174.756 143.702 173.231 143.931C172.646 144.02 172.17 144.072 171.839 144.097C171.67 144.119 171.498 144.125 171.327 144.117C171.492 144.071 171.661 144.042 171.831 144.028C172.158 143.984 172.638 143.911 173.211 143.81C174.716 143.54 176.199 143.159 177.649 142.673C179.098 142.176 180.508 141.572 181.868 140.865C182.393 140.595 182.812 140.365 183.078 140.204C183.233 140.118 183.393 140.044 183.558 139.982Z" fill="#EBEBEB"/>
<path id="Vector_8" d="M183.703 144.267C183.662 144.3 183.615 144.327 183.566 144.347L183.163 144.545C182.804 144.722 182.275 144.948 181.618 145.219C179.897 145.907 178.126 146.464 176.321 146.885C174.515 147.302 172.679 147.58 170.831 147.716C170.121 147.768 169.544 147.792 169.148 147.792H168.689H168.531C168.582 147.777 168.635 147.768 168.689 147.768L169.144 147.736C169.548 147.736 170.113 147.671 170.819 147.607C172.657 147.432 174.481 147.137 176.281 146.723C178.079 146.304 179.847 145.765 181.573 145.11C182.235 144.86 182.784 144.646 183.135 144.493L183.538 144.323C183.647 144.275 183.699 144.259 183.703 144.267Z" fill="#EBEBEB"/>
<path id="Vector_9" d="M165.727 140.64C165.689 140.8 165.639 140.958 165.578 141.112C165.525 141.261 165.461 141.446 165.396 141.664C165.332 141.882 165.251 142.12 165.183 142.399C165.011 143.038 164.876 143.688 164.779 144.343C164.661 145.145 164.595 145.953 164.581 146.763C164.576 147.572 164.625 148.381 164.727 149.184C164.813 149.842 164.937 150.496 165.098 151.14C165.158 151.415 165.239 151.661 165.3 151.879C165.36 152.096 165.417 152.282 165.469 152.431C165.526 152.586 165.572 152.746 165.606 152.907C165.524 152.764 165.456 152.613 165.404 152.455C165.329 152.276 165.263 152.093 165.207 151.907C165.134 151.693 165.049 151.447 164.981 151.169C164.803 150.523 164.668 149.867 164.577 149.204C164.467 148.391 164.414 147.572 164.416 146.751C164.432 145.93 164.503 145.11 164.63 144.299C164.739 143.638 164.89 142.984 165.082 142.342C165.158 142.068 165.251 141.826 165.324 141.612C165.396 141.398 165.473 141.208 165.534 141.067C165.585 140.919 165.65 140.776 165.727 140.64Z" fill="#EBEBEB"/>
<path id="Vector_10" d="M151.031 127.392C151.06 127.409 151.087 127.429 151.112 127.452L151.342 127.638C151.536 127.811 151.846 128.041 152.197 128.384C153.222 129.33 154.159 130.367 154.997 131.482C156.244 133.133 157.311 134.913 158.18 136.791C159.24 139.091 160.069 141.491 160.652 143.955C161.225 146.421 161.629 148.922 161.863 151.443C162.085 153.766 162.185 155.86 162.242 157.623C162.298 159.386 162.319 160.81 162.327 161.794C162.327 162.278 162.327 162.657 162.327 162.928C162.327 163.049 162.327 163.146 162.327 163.222C162.328 163.256 162.328 163.289 162.327 163.323C162.321 163.29 162.321 163.256 162.327 163.222C162.327 163.15 162.327 163.049 162.327 162.928C162.327 162.657 162.302 162.278 162.286 161.794C162.258 160.81 162.218 159.374 162.145 157.627C162.072 155.88 161.964 153.774 161.742 151.459C161.502 148.947 161.098 146.454 160.531 143.996C159.95 141.542 159.128 139.152 158.079 136.86C157.223 134.986 156.172 133.208 154.944 131.555C154.118 130.44 153.2 129.396 152.201 128.432C151.854 128.081 151.556 127.847 151.366 127.666L151.152 127.464L151.031 127.392Z" fill="#EBEBEB"/>
<path id="Vector_11" d="M150.854 146.351C150.854 146.351 150.898 146.327 150.987 146.303C151.119 146.262 151.254 146.229 151.39 146.202C151.877 146.099 152.373 146.041 152.871 146.029C154.526 145.974 156.163 146.385 157.596 147.215C159.028 148.046 160.199 149.261 160.975 150.724C161.212 151.163 161.407 151.622 161.56 152.096C161.616 152.261 161.645 152.399 161.669 152.499C161.693 152.6 161.701 152.637 161.693 152.637C161.618 152.472 161.552 152.304 161.495 152.132C161.321 151.672 161.111 151.226 160.87 150.797C160.079 149.374 158.918 148.192 157.51 147.376C156.101 146.56 154.498 146.14 152.871 146.162C152.379 146.166 151.888 146.206 151.402 146.283C151.221 146.317 151.038 146.34 150.854 146.351Z" fill="#EBEBEB"/>
<path id="Vector_12" d="M148.264 140.579C148.311 140.557 148.361 140.542 148.413 140.535C148.514 140.515 148.663 140.479 148.853 140.45C149.394 140.361 149.942 140.315 150.49 140.313C152.312 140.294 154.113 140.704 155.747 141.511C157.381 142.318 158.801 143.498 159.894 144.956C160.23 145.398 160.532 145.864 160.798 146.352C160.89 146.518 160.951 146.659 160.995 146.756C161.022 146.801 161.041 146.85 161.052 146.901C160.937 146.736 160.832 146.565 160.737 146.388C160.458 145.922 160.149 145.473 159.813 145.045C158.525 143.424 156.845 142.158 154.931 141.368C153.017 140.578 150.933 140.29 148.877 140.531C148.674 140.559 148.469 140.575 148.264 140.579Z" fill="#EBEBEB"/>
<path id="Vector_13" d="M144.662 134.766C144.713 134.74 144.768 134.72 144.823 134.706C144.932 134.673 145.094 134.613 145.304 134.564C145.896 134.406 146.5 134.297 147.111 134.238C149.137 134.021 151.185 134.289 153.087 135.021C154.989 135.752 156.689 136.926 158.047 138.445C158.463 138.899 158.844 139.384 159.185 139.897C159.306 140.079 159.386 140.228 159.443 140.325C159.475 140.374 159.502 140.427 159.524 140.482C159.38 140.308 159.245 140.126 159.12 139.938C158.766 139.443 158.379 138.973 157.962 138.53C156.596 137.053 154.909 135.909 153.031 135.186C151.153 134.463 149.135 134.18 147.131 134.359C146.525 134.411 145.923 134.501 145.328 134.629C145.109 134.688 144.887 134.734 144.662 134.766Z" fill="#EBEBEB"/>
<path id="Vector_14" d="M166.281 135.791C166.254 135.839 166.222 135.884 166.184 135.924L165.885 136.271C165.752 136.42 165.595 136.605 165.425 136.831C165.256 137.057 165.022 137.303 164.844 137.598C164.667 137.892 164.417 138.211 164.203 138.57C163.989 138.929 163.771 139.32 163.549 139.732C162.613 141.548 162.008 143.516 161.762 145.545C161.714 146.013 161.662 146.457 161.653 146.876C161.645 147.296 161.633 147.683 161.653 148.038C161.674 148.393 161.682 148.716 161.698 148.998C161.714 149.281 161.742 149.523 161.77 149.72L161.819 150.176C161.826 150.231 161.826 150.287 161.819 150.341C161.819 150.341 161.819 150.289 161.779 150.184C161.738 150.079 161.726 149.91 161.694 149.732C161.662 149.555 161.617 149.293 161.593 149.006C161.569 148.72 161.524 148.401 161.52 148.042C161.516 147.683 161.492 147.292 161.52 146.868C161.549 146.445 161.573 145.997 161.613 145.525C161.738 144.502 161.949 143.491 162.242 142.503C162.553 141.521 162.945 140.567 163.416 139.651C163.646 139.248 163.856 138.844 164.094 138.485C164.299 138.151 164.521 137.828 164.76 137.517C164.961 137.223 165.163 136.981 165.361 136.763C165.513 136.572 165.676 136.391 165.849 136.218L166.172 135.891C166.242 135.819 166.278 135.785 166.281 135.791Z" fill="#EBEBEB"/>
<path id="Vector_15" d="M163.408 129.978C163.432 130.002 163.005 130.47 162.424 131.301C162.083 131.789 161.77 132.295 161.484 132.818C161.141 133.46 160.838 134.123 160.576 134.802C160.324 135.484 160.116 136.183 159.955 136.892C159.824 137.472 159.725 138.059 159.661 138.651C159.552 139.659 159.564 140.293 159.527 140.293C159.504 140.146 159.494 139.997 159.499 139.849C159.488 139.445 159.5 139.041 159.535 138.639C159.585 138.04 159.671 137.444 159.794 136.856C159.951 136.136 160.158 135.428 160.415 134.738C160.678 134.051 160.988 133.384 161.343 132.741C161.637 132.216 161.964 131.711 162.323 131.228C162.562 130.902 162.82 130.59 163.094 130.292C163.188 130.177 163.293 130.072 163.408 129.978Z" fill="#EBEBEB"/>
<path id="Vector_16" d="M157.402 123.435C157.386 123.587 157.359 123.738 157.321 123.886C157.261 124.173 157.176 124.588 157.083 125.097C156.849 126.438 156.715 127.794 156.68 129.155C156.649 130.518 156.72 131.881 156.894 133.233C156.958 133.75 157.023 134.169 157.071 134.444C157.103 134.592 157.121 134.743 157.124 134.895C157.069 134.753 157.029 134.606 157.003 134.456C156.934 134.169 156.853 133.754 156.769 133.245C156.35 130.529 156.419 127.76 156.974 125.068C157.083 124.552 157.184 124.141 157.269 123.858C157.299 123.713 157.344 123.571 157.402 123.435Z" fill="#EBEBEB"/>
<path id="Vector_17" d="M85.619 115.052H0V154.537H85.619V115.052Z" fill="#F5F5F5"/>
<path id="Vector_18" d="M83.5822 152.682H1.96094V117.129H83.5822V152.682ZM2.49747 152.149H83.0497V117.666H2.49344L2.49747 152.149Z" fill="#E0E0E0"/>
<path id="Vector_19" d="M106.536 115.052H85.6191V154.537H106.536V115.052Z" fill="#E0E0E0"/>
<path id="Vector_20" d="M2.22708 128.134H83.3118C83.3407 128.134 83.3684 128.122 83.3888 128.102C83.4092 128.082 83.4207 128.054 83.4207 128.025C83.4207 127.996 83.4092 127.968 83.3888 127.948C83.3684 127.927 83.3407 127.916 83.3118 127.916H2.22708C2.1982 127.916 2.17049 127.927 2.15006 127.948C2.12964 127.968 2.11816 127.996 2.11816 128.025C2.11816 128.054 2.12964 128.082 2.15006 128.102C2.17049 128.122 2.1982 128.134 2.22708 128.134Z" fill="#E0E0E0"/>
<path id="Vector_21" d="M43.0355 128.025C43.2607 124.453 43.2701 120.871 43.0637 117.298C43.0637 117.269 43.0522 117.242 43.0318 117.221C43.0114 117.201 42.9837 117.189 42.9548 117.189C42.9259 117.189 42.8982 117.201 42.8778 117.221C42.8573 117.242 42.8459 117.269 42.8459 117.298C42.6374 120.871 42.6468 124.453 42.8741 128.025C42.8741 128.046 42.8826 128.067 42.8977 128.082C42.9129 128.097 42.9334 128.106 42.9548 128.106C42.9762 128.106 42.9967 128.097 43.0118 128.082C43.027 128.067 43.0355 128.046 43.0355 128.025Z" fill="#E0E0E0"/>
<path id="Vector_22" d="M64.864 122.664C64.864 122.883 64.7992 123.097 64.6777 123.279C64.5563 123.46 64.3836 123.602 64.1816 123.686C63.9797 123.769 63.7574 123.791 63.543 123.749C63.3286 123.706 63.1316 123.601 62.9771 123.446C62.8225 123.291 62.7172 123.094 62.6746 122.88C62.6319 122.666 62.6538 122.443 62.7375 122.241C62.8211 122.039 62.9628 121.867 63.1446 121.745C63.3263 121.624 63.54 121.559 63.7587 121.559C63.9038 121.559 64.0475 121.588 64.1816 121.643C64.3158 121.699 64.4376 121.78 64.5402 121.883C64.6429 121.985 64.7243 122.107 64.7799 122.241C64.8354 122.376 64.864 122.519 64.864 122.664Z" fill="#E0E0E0"/>
<path id="Vector_23" d="M22.3044 122.664C22.3044 122.884 22.239 123.098 22.1166 123.28C21.9943 123.462 21.8204 123.604 21.6173 123.687C21.4141 123.77 21.1909 123.791 20.9759 123.746C20.761 123.702 20.5641 123.595 20.4103 123.438C20.2566 123.282 20.1529 123.083 20.1126 122.867C20.0722 122.651 20.097 122.429 20.1838 122.227C20.2706 122.025 20.4154 121.854 20.5998 121.735C20.7842 121.616 20.9998 121.555 21.2193 121.559C21.5092 121.563 21.7858 121.681 21.989 121.888C22.1922 122.095 22.3055 122.374 22.3044 122.664Z" fill="#E0E0E0"/>
<path id="Vector_24" d="M43.8747 134.908C43.8747 135.126 43.8099 135.34 43.6884 135.522C43.567 135.703 43.3944 135.845 43.1924 135.929C42.9904 136.012 42.7682 136.034 42.5538 135.992C42.3393 135.949 42.1424 135.844 41.9878 135.689C41.8332 135.535 41.728 135.338 41.6853 135.123C41.6427 134.909 41.6645 134.687 41.7482 134.485C41.8319 134.283 41.9735 134.11 42.1553 133.989C42.3371 133.867 42.5508 133.802 42.7694 133.802C42.9147 133.802 43.0587 133.83 43.193 133.885C43.3274 133.941 43.4494 134.022 43.5522 134.125C43.6549 134.228 43.7363 134.35 43.7917 134.484C43.847 134.618 43.8753 134.762 43.8747 134.908Z" fill="#E0E0E0"/>
<path id="Vector_25" d="M10.2343 154.541L5.8291 179.33H8.30602L16.4347 154.541H10.2343Z" fill="#E0E0E0"/>
<path id="Vector_26" d="M79.5636 154.541L83.2467 179.375H80.7698L73.3633 154.541H79.5636Z" fill="#E0E0E0"/>
<path id="Vector_27" d="M96.1164 154.541L100.292 179.375H97.8107L89.916 154.541H96.1164Z" fill="#E0E0E0"/>
<path id="Vector_28" d="M43.8103 146.082C43.8103 146.301 43.7454 146.514 43.624 146.696C43.5025 146.878 43.3299 147.019 43.1279 147.103C42.926 147.187 42.7037 147.209 42.4893 147.166C42.2749 147.123 42.0779 147.018 41.9234 146.863C41.7688 146.709 41.6635 146.512 41.6208 146.298C41.5782 146.083 41.6001 145.861 41.6838 145.659C41.7674 145.457 41.9091 145.284 42.0909 145.163C42.2726 145.041 42.4863 144.977 42.7049 144.977C42.9981 144.977 43.2792 145.093 43.4865 145.3C43.6938 145.508 43.8103 145.789 43.8103 146.082Z" fill="#E0E0E0"/>
<path id="Vector_29" d="M2.22708 140.361H83.3118C83.3407 140.361 83.3684 140.35 83.3888 140.329C83.4092 140.309 83.4207 140.281 83.4207 140.252C83.4207 140.224 83.4092 140.196 83.3888 140.175C83.3684 140.155 83.3407 140.144 83.3118 140.144H2.22708C2.1982 140.144 2.17049 140.155 2.15006 140.175C2.12964 140.196 2.11816 140.224 2.11816 140.252C2.11816 140.281 2.12964 140.309 2.15006 140.329C2.17049 140.35 2.1982 140.361 2.22708 140.361Z" fill="#E0E0E0"/>
<path id="Vector_30" d="M60.0673 102.134L60.0146 96.8652L34.128 97.1241L34.1807 102.393L60.0673 102.134Z" fill="#E0E0E0"/>
<path id="Vector_31" d="M62.8847 114.937L62.8418 106.748L33.9865 106.899L34.0294 115.088L62.8847 114.937Z" fill="#F5F5F5"/>
<path id="Vector_32" d="M57.3276 114.886C57.2509 114.886 57.1904 113.055 57.1904 110.792C57.1904 108.529 57.2509 106.697 57.3276 106.697C57.4042 106.697 57.4688 108.533 57.4688 110.792C57.4688 113.051 57.4083 114.886 57.3276 114.886Z" fill="#E0E0E0"/>
<path id="Vector_33" d="M58.5426 114.886C58.4659 114.886 58.4014 113.055 58.4014 110.792C58.4014 108.529 58.4659 106.697 58.5426 106.697C58.6192 106.697 58.6838 108.533 58.6838 110.792C58.6838 113.051 58.6192 114.886 58.5426 114.886Z" fill="#E0E0E0"/>
<path id="Vector_34" d="M38.3765 114.886C38.2999 114.886 38.2354 113.055 38.2354 110.792C38.2354 108.529 38.2999 106.697 38.3765 106.697C38.4532 106.697 38.5177 108.533 38.5177 110.792C38.5177 113.051 38.4532 114.886 38.3765 114.886Z" fill="#E0E0E0"/>
<path id="Vector_35" d="M39.5904 114.886C39.5097 114.886 39.4492 113.055 39.4492 110.792C39.4492 108.529 39.5097 106.697 39.5904 106.697C39.6711 106.697 39.7276 108.533 39.7276 110.792C39.7276 113.051 39.6671 114.886 39.5904 114.886Z" fill="#E0E0E0"/>
<path id="Vector_36" d="M42.2324 110.925C42.2324 110.844 45.145 110.784 48.7353 110.784C52.3257 110.784 55.2342 110.844 55.2342 110.925C55.2342 111.006 52.3257 111.066 48.7353 111.066C45.145 111.066 42.2324 111.002 42.2324 110.925Z" fill="#E0E0E0"/>
<path id="Vector_37" d="M74.0517 107.19L73.999 101.922L38.3944 102.278L38.447 107.546L74.0517 107.19Z" fill="#EBEBEB"/>
<path id="Vector_38" d="M68.6281 106.056C68.2896 106.061 67.9573 105.965 67.6735 105.78C67.3898 105.595 67.1673 105.331 67.0344 105.019C66.9015 104.708 66.8643 104.364 66.9274 104.031C66.9904 103.699 67.151 103.393 67.3887 103.152C67.6263 102.91 67.9303 102.745 68.262 102.678C68.5936 102.61 68.938 102.642 69.2512 102.771C69.5644 102.899 69.8323 103.118 70.0209 103.399C70.2095 103.68 70.3102 104.011 70.3103 104.349C70.3124 104.572 70.2705 104.793 70.187 104.999C70.1036 105.206 69.9801 105.394 69.8238 105.552C69.6675 105.711 69.4814 105.837 69.2762 105.923C69.071 106.01 68.8507 106.055 68.6281 106.056Z" fill="#E0E0E0"/>
<path id="Vector_39" d="M64 104.878V103.825H40.1667V104.878H64Z" fill="#E0E0E0"/>
</g>
<g id="Plant">
<path id="Vector_40" d="M53.6521 99.1978C49.4567 101.372 46.2294 105.112 43.926 109.239C41.6225 113.365 40.1219 117.88 38.6454 122.369L37.3545 145.505C42.2357 137.203 46.1528 127.44 47.2097 117.863L43.9623 117.577C46.1407 117.242 47.9681 115.665 49.134 113.793C50.2998 111.921 50.8928 109.759 51.4778 107.641L47.5163 108.23C50.6457 106.119 52.8428 102.885 53.6521 99.1978Z" fill="#455A64"/>
<g id="Group" opacity="0.3">
<path id="Vector_41" d="M53.6521 99.1978C49.4567 101.372 46.2294 105.112 43.926 109.239C41.6225 113.365 40.1219 117.88 38.6454 122.369L37.3545 145.505C42.2357 137.203 46.1528 127.44 47.2097 117.863L43.9623 117.577C46.1407 117.242 47.9681 115.665 49.134 113.793C50.2998 111.921 50.8928 109.759 51.4778 107.641L47.5163 108.23C50.6457 106.119 52.8428 102.885 53.6521 99.1978Z" fill="black"/>
</g>
<path id="Vector_42" d="M36.6324 150.93C36.6324 150.93 26.0349 138.247 26.1438 126.141H30.424C30.424 126.141 25.7727 123.083 26.1398 121.373C26.5069 119.662 26.6319 113.18 26.6319 113.18L30.545 114.156C30.545 114.156 27.6082 112.691 27.2411 110.368C26.874 108.044 28.1003 97.2812 28.1003 97.2812C28.1003 97.2812 32.8686 102.296 34.337 107.431C35.8054 112.566 39.6539 118.561 38.5244 134.213C37.3948 149.865 36.6324 150.93 36.6324 150.93Z" fill="#455A64"/>
<path id="Vector_43" d="M42.0019 152.125C42.0019 152.125 53.4909 144.48 56.0324 134.718L52.5913 133.782C52.5913 133.782 56.9965 132.342 57.0772 130.885C57.1579 129.429 58.473 124.193 58.473 124.193L55.1126 124.12C55.1126 124.12 57.7953 123.584 58.5981 121.797C59.4008 120.01 60.7724 111.09 60.7724 111.09C60.7724 111.09 55.8428 114.076 53.5393 117.884C51.2359 121.692 46.8266 125.669 44.3134 138.498C41.8002 151.326 42.0019 152.125 42.0019 152.125Z" fill="#455A64"/>
<path id="Vector_44" d="M31.0088 108.339C31.0263 108.382 31.0398 108.426 31.0491 108.472C31.0491 108.569 31.1016 108.698 31.1419 108.875C31.2186 109.234 31.3355 109.739 31.4767 110.38C31.6179 111.022 31.7954 111.836 31.981 112.768C32.1666 113.7 32.3844 114.761 32.6063 115.939C33.0581 118.291 33.5382 121.103 34.0303 124.229C34.5225 127.355 34.9864 130.809 35.41 134.435C35.8335 138.062 36.1482 141.535 36.3983 144.694C36.6484 147.853 36.8017 150.697 36.8985 153.089C36.959 154.299 36.9873 155.368 37.0155 156.316C37.0438 157.264 37.0639 158.083 37.072 158.736C37.0801 159.39 37.072 159.914 37.072 160.277V160.681C37.078 160.726 37.078 160.772 37.072 160.818C37.067 160.772 37.067 160.726 37.072 160.681V160.277C37.072 159.91 37.0397 159.394 37.0155 158.736C36.9913 158.079 36.9711 157.248 36.9268 156.316C36.8824 155.384 36.8501 154.299 36.7815 153.089C36.6686 150.697 36.4749 147.844 36.2329 144.698C35.9909 141.551 35.648 138.082 35.2325 134.451C34.8169 130.821 34.3369 127.38 33.8689 124.249C33.401 121.119 32.925 118.311 32.4893 115.959C32.2836 114.781 32.0859 113.716 31.8963 112.784C31.7067 111.853 31.5615 111.046 31.4243 110.388C31.2871 109.731 31.1984 109.234 31.1258 108.879C31.0975 108.714 31.0733 108.581 31.0532 108.476C31.0345 108.432 31.0197 108.386 31.0088 108.339Z" fill="#263238"/>
<path id="Vector_45" d="M35.1601 158.696C35.1601 158.696 25.4783 147.691 22.4568 141.043L24.728 140.071C23.0821 140.345 21.3918 139.635 20.1171 138.562C18.8423 137.489 17.8983 136.069 16.9786 134.677L19.9759 134.173C17.2252 133.387 14.8823 131.573 13.4326 129.106C16.9665 129.687 20.1614 131.628 22.7957 134.052C24.8928 136.061 26.7958 138.262 28.4797 140.628C29.3301 141.764 30.069 142.98 30.6863 144.258C32.304 147.615 35.1682 154.654 35.1601 158.696Z" fill="#455A64"/>
<path id="Vector_46" d="M56.1864 117.492C56.1746 117.531 56.1597 117.569 56.142 117.605C56.1017 117.686 56.0532 117.795 55.9927 117.924L55.4038 119.134C54.8834 120.191 54.1492 121.728 53.2576 123.632C52.3661 125.536 51.3374 127.823 50.2321 130.377C49.1268 132.931 47.969 135.762 46.8072 138.756C45.6454 141.749 44.6126 144.629 43.705 147.26C42.7973 149.89 42.0268 152.278 41.4056 154.287C40.7843 156.296 40.2922 157.918 39.9654 159.059L39.562 160.358C39.5216 160.499 39.4853 160.608 39.4571 160.697C39.447 160.736 39.4335 160.774 39.4168 160.81C39.4119 160.77 39.4119 160.729 39.4168 160.689C39.441 160.6 39.4692 160.487 39.5015 160.346C39.5862 160.035 39.7032 159.596 39.8484 159.039C40.151 157.897 40.6189 156.26 41.2281 154.243C41.8372 152.225 42.5916 149.837 43.4831 147.199C44.3746 144.561 45.4195 141.68 46.5732 138.679C47.7269 135.678 48.9089 132.858 50.0183 130.3C51.1277 127.743 52.1765 125.459 53.0882 123.572C53.9999 121.684 54.7502 120.143 55.2948 119.098L55.9161 117.888C55.9887 117.758 56.0411 117.654 56.0855 117.577C56.1138 117.543 56.148 117.514 56.1864 117.492Z" fill="#263238"/>
<path id="Vector_47" d="M35.9834 163.408C35.9576 163.343 35.9413 163.275 35.935 163.206C35.9107 163.049 35.8785 162.855 35.8422 162.621C35.7655 162.113 35.6405 161.383 35.463 160.483C35.2855 159.583 35.0354 158.518 34.7207 157.349C34.406 156.179 33.9905 154.928 33.5105 153.605C33.0304 152.282 32.4737 151.076 31.9493 149.974C31.4249 148.873 30.9004 147.921 30.4365 147.13C29.9726 146.34 29.5894 145.706 29.307 145.275L28.9923 144.774C28.9532 144.716 28.9207 144.654 28.8955 144.589C28.8955 144.589 28.948 144.641 29.0286 144.75L29.3756 145.23C29.6781 145.634 30.0856 146.271 30.5858 147.054C31.086 147.836 31.5983 148.8 32.1429 149.878C32.6875 150.955 33.2281 152.197 33.7283 153.508C34.2285 154.819 34.6198 156.106 34.9385 157.28C35.2572 158.454 35.4831 159.527 35.6405 160.435C35.7978 161.342 35.9027 162.081 35.9551 162.593C35.9551 162.827 35.9955 163.021 36.0116 163.182C36.0163 163.258 36.0067 163.335 35.9834 163.408Z" fill="#263238"/>
<path id="Vector_48" d="M48.7748 160.822H27.5557V165.151H48.7748V160.822Z" fill="#003366"/>
<path id="Vector_49" d="M29.582 165.15L31.8774 179.709H44.6977L46.8398 165.15H29.582Z" fill="#003366"/>
<path id="Vector_50" d="M47.4763 165.151C47.4763 165.207 43.4423 165.256 38.5127 165.256C33.583 165.256 29.5449 165.207 29.5449 165.151C29.5449 165.094 33.579 165.046 38.5127 165.046C43.4463 165.046 47.4763 165.09 47.4763 165.151Z" fill="#263238"/>
</g>
<g id="Screens">
<path id="Vector_51" d="M170.492 21.2759H78.4512V91.3799H170.492V21.2759Z" fill="white"/>
<path id="Vector_52" d="M107.319 33.8623H78.4512V91.38H107.319V33.8623Z" fill="#F5F5F5"/>
<path id="Vector_53" d="M86.9753 65.2231L86.9148 57.8731C86.8795 57.6993 86.8863 57.5196 86.9348 57.3491C86.9832 57.1785 87.0718 57.022 87.1932 56.8928C87.3084 56.802 87.4499 56.751 87.5966 56.7476L91.7315 56.7919C91.8577 56.79 91.9816 56.8253 92.0878 56.8935C92.194 56.9617 92.2777 57.0596 92.3285 57.1752L92.7924 58.1756L98.1981 58.2361C98.3422 58.2172 98.4886 58.2306 98.6269 58.2753C98.7652 58.3199 98.8918 58.3948 98.9976 58.4944C99.1034 58.594 99.1857 58.7159 99.2386 58.8512C99.2915 58.9866 99.3136 59.132 99.3034 59.2769L99.1784 65.5176C99.1405 65.8575 98.9829 66.1727 98.7338 66.407C98.4847 66.6413 98.1604 66.7794 97.8189 66.7964L88.2622 66.6956C87.6127 66.6915 87.0641 66.1066 86.9753 65.2231Z" fill="#E0E0E0"/>
<path id="Vector_54" d="M86.8219 65.114V58.9499C86.8256 58.7407 86.9055 58.5401 87.0466 58.3856C87.1877 58.2311 87.3803 58.1334 87.5884 58.1108L98.4279 58.2198C98.8837 58.2198 99.2347 58.7482 99.1742 59.3412L99.1984 65.0414C99.1984 66.4654 98.4239 66.8809 97.7744 66.8728L88.2782 66.776C87.314 66.7679 86.7614 66.3363 86.8219 65.114Z" fill="#EBEBEB"/>
<path id="Vector_55" d="M87.003 83.7428L86.9425 76.3927C86.9068 76.219 86.9135 76.0392 86.962 75.8686C87.0104 75.698 87.0992 75.5415 87.2208 75.4124C87.3345 75.3183 87.4767 75.2657 87.6242 75.2632L91.7592 75.3076C91.8868 75.3086 92.0113 75.3475 92.1169 75.4193C92.2224 75.4911 92.3043 75.5926 92.3522 75.711L92.8201 76.7114L98.2258 76.7719C98.3697 76.7538 98.5159 76.7677 98.6538 76.8126C98.7917 76.8576 98.918 76.9324 99.0237 77.0319C99.1293 77.1313 99.2116 77.2529 99.2648 77.3879C99.3179 77.5229 99.3406 77.668 99.3311 77.8127L99.206 84.0534C99.1697 84.3939 99.0127 84.7101 98.7632 84.9447C98.5138 85.1793 98.1886 85.3168 97.8466 85.3322L88.2899 85.2354C87.6444 85.2072 87.0958 84.6303 87.003 83.7428Z" fill="#E0E0E0"/>
<path id="Vector_56" d="M86.8586 83.6301V77.466C86.8631 77.2571 86.9433 77.0569 87.0843 76.9026C87.2252 76.7483 87.4174 76.6503 87.625 76.627L98.4646 76.7399C98.9204 76.7399 99.2714 77.2684 99.2109 77.8573L99.2351 83.5575C99.2351 84.9815 98.4565 85.397 97.8111 85.393L88.3149 85.2962C87.3507 85.2841 86.794 84.8524 86.8586 83.6301Z" fill="#EBEBEB"/>
<path id="Vector_57" d="M170.492 28.0288H78.4512V34.7818H170.492V28.0288Z" fill="#EBEBEB"/>
<path id="Vector_58" d="M170.492 21.2759H78.4512V28.0289H170.492V21.2759Z" fill="#E0E0E0"/>
<path id="Vector_59" d="M82.7312 23.8738C82.732 24.0289 82.6867 24.1808 82.601 24.3101C82.5153 24.4394 82.3931 24.5404 82.25 24.6001C82.1068 24.6598 81.9491 24.6757 81.7969 24.6456C81.6447 24.6155 81.5049 24.5409 81.3952 24.4312C81.2855 24.3215 81.2109 24.1817 81.1809 24.0295C81.1508 23.8773 81.1666 23.7196 81.2264 23.5765C81.2861 23.4333 81.387 23.3111 81.5163 23.2254C81.6457 23.1397 81.7975 23.0944 81.9527 23.0952C82.1588 23.0963 82.3562 23.1787 82.502 23.3244C82.6478 23.4702 82.7302 23.6676 82.7312 23.8738Z" fill="#455A64"/>
<path id="Vector_60" d="M85.6394 23.8738C85.6402 24.0287 85.595 24.1804 85.5095 24.3097C85.424 24.4389 85.302 24.5398 85.1591 24.5997C85.0162 24.6595 84.8587 24.6756 84.7066 24.6459C84.5545 24.6161 84.4147 24.5419 84.3049 24.4326C84.195 24.3234 84.1201 24.1839 84.0896 24.032C84.059 23.8801 84.0743 23.7225 84.1334 23.5793C84.1925 23.436 84.2928 23.3136 84.4216 23.2274C84.5504 23.1412 84.7019 23.0952 84.8568 23.0952C85.0637 23.0952 85.2621 23.1771 85.4088 23.323C85.5554 23.4689 85.6384 23.6669 85.6394 23.8738Z" fill="#455A64"/>
<path id="Vector_61" d="M88.7222 23.8738C88.7222 24.0278 88.6765 24.1783 88.591 24.3063C88.5054 24.4344 88.3838 24.5342 88.2416 24.5931C88.0993 24.652 87.9428 24.6674 87.7917 24.6374C87.6407 24.6074 87.502 24.5332 87.3931 24.4243C87.2842 24.3154 87.21 24.1767 87.18 24.0257C87.15 23.8747 87.1654 23.7181 87.2243 23.5758C87.2832 23.4336 87.383 23.312 87.5111 23.2264C87.6391 23.1409 87.7896 23.0952 87.9436 23.0952C88.0459 23.0952 88.1471 23.1154 88.2416 23.1545C88.336 23.1936 88.4219 23.251 88.4941 23.3233C88.5664 23.3956 88.6238 23.4814 88.6629 23.5758C88.7021 23.6703 88.7222 23.7715 88.7222 23.8738Z" fill="#455A64"/>
<path id="Vector_62" d="M170.48 91.2707C170.48 91.2707 170.48 90.835 170.48 90C170.48 89.1649 170.48 87.9184 170.48 86.2967C170.48 83.0695 170.48 78.2851 170.456 72.1775C170.456 59.9986 170.428 42.511 170.407 21.2716L170.5 21.3684L78.4631 21.3926L78.576 21.2716C78.576 46.3312 78.576 70.108 78.576 91.2586L78.4711 91.1497L144.864 91.2062L163.763 91.2344H168.782H170.073H170.48H170.048H168.766H163.771L144.896 91.2626L78.4348 91.3191H78.334V91.2062C78.334 70.0556 78.334 46.2788 78.334 21.2192V21.0981H78.455L170.48 21.1869H170.569V21.2958C170.549 42.5634 170.533 60.0672 170.524 72.2622C170.524 78.3456 170.524 83.1058 170.5 86.3451C170.5 87.9587 170.5 89.1972 170.5 90.0323C170.5 90.8673 170.48 91.2707 170.48 91.2707Z" fill="#263238"/>
<path id="Vector_63" d="M87.0393 48.4128L86.9102 41.2402C86.8747 41.0718 86.8795 40.8973 86.9244 40.7311C86.9693 40.5649 87.0529 40.4117 87.1684 40.2841C87.2814 40.1888 87.4241 40.136 87.5718 40.1349H91.6059C91.729 40.1327 91.8501 40.1667 91.954 40.2327C92.058 40.2987 92.1403 40.3937 92.1908 40.506L92.6547 41.4742H97.9353C98.0752 41.4542 98.2178 41.4655 98.3528 41.5075C98.4877 41.5494 98.6117 41.6209 98.7156 41.7166C98.8195 41.8124 98.9007 41.9302 98.9535 42.0613C99.0062 42.1924 99.0291 42.3336 99.0205 42.4746L98.964 48.5701C98.9302 48.9023 98.7794 49.2117 98.5384 49.443C98.2975 49.6743 97.9823 49.8125 97.6489 49.8328H88.3262C87.6848 49.8408 87.1442 49.2761 87.0393 48.4128Z" fill="#003366"/>
<g id="Group_2" opacity="0.3">
<path id="Vector_64" d="M87.0393 48.4128L86.9102 41.2402C86.8747 41.0718 86.8795 40.8973 86.9244 40.7311C86.9693 40.5649 87.0529 40.4117 87.1684 40.2841C87.2814 40.1888 87.4241 40.136 87.5718 40.1349H91.6059C91.729 40.1327 91.8501 40.1667 91.954 40.2327C92.058 40.2987 92.1403 40.3937 92.1908 40.506L92.6547 41.4742H97.9353C98.0752 41.4542 98.2178 41.4655 98.3528 41.5075C98.4877 41.5494 98.6117 41.6209 98.7156 41.7166C98.8195 41.8124 98.9007 41.9302 98.9535 42.0613C99.0062 42.1924 99.0291 42.3336 99.0205 42.4746L98.964 48.5701C98.9302 48.9023 98.7794 49.2117 98.5384 49.443C98.2975 49.6743 97.9823 49.8125 97.6489 49.8328H88.3262C87.6848 49.8408 87.1442 49.2761 87.0393 48.4128Z" fill="black"/>
</g>
<path id="Vector_65" d="M86.9341 48.3242L86.8857 42.3094C86.8882 42.105 86.9648 41.9085 87.1014 41.7563C87.2379 41.6042 87.4251 41.5069 87.628 41.4824H98.2053C98.6531 41.4824 99.0121 41.9907 98.9476 42.5676L99.0242 48.1306C99.0242 49.5183 98.286 49.9338 97.6567 49.9338H88.3783C87.4344 49.9378 86.8857 49.5021 86.9341 48.3242Z" fill="#003366"/>
<path id="Vector_66" d="M107.509 53.3065C107.509 53.363 101.054 53.4114 93.0546 53.4114C85.0551 53.4114 78.6006 53.363 78.6006 53.3065C78.6006 53.2501 85.0551 53.2017 93.0546 53.2017C101.054 53.2017 107.509 53.246 107.509 53.3065Z" fill="#E0E0E0"/>
<path id="Vector_67" d="M107.343 71.4833C107.343 71.5398 100.868 71.5882 92.8888 71.5882C84.9094 71.5882 78.4307 71.5398 78.4307 71.4833C78.4307 71.4268 84.8852 71.3784 92.8888 71.3784C100.892 71.3784 107.343 71.4268 107.343 71.4833Z" fill="#E0E0E0"/>
<path id="Vector_68" d="M107.097 34.939C107.154 34.939 107.202 47.5737 107.202 63.1774C107.202 78.7812 107.154 91.4159 107.097 91.4159C107.041 91.4159 106.992 78.7812 106.992 63.1774C106.992 47.5737 107.041 34.939 107.097 34.939Z" fill="#E0E0E0"/>
<path id="Vector_69" d="M113.289 49.3165L125.783 49.3568V39.9857L113.317 39.9453L113.289 49.3165Z" fill="#003366"/>
<g id="Group_3" opacity="0.2">
<path id="Vector_70" d="M121.503 42.8056C121.502 42.9995 121.443 43.1888 121.335 43.3495C121.227 43.5103 121.073 43.6353 120.894 43.7088C120.714 43.7822 120.517 43.8008 120.327 43.7622C120.137 43.7236 119.963 43.6295 119.826 43.4919C119.69 43.3542 119.597 43.1792 119.56 42.9889C119.523 42.7985 119.543 42.6015 119.618 42.4227C119.693 42.2439 119.819 42.0913 119.981 41.9843C120.143 41.8772 120.332 41.8205 120.526 41.8213C120.655 41.8213 120.783 41.8468 120.902 41.8964C121.021 41.9459 121.129 42.0186 121.219 42.1101C121.31 42.2016 121.382 42.3102 121.431 42.4295C121.479 42.5489 121.504 42.6767 121.503 42.8056Z" fill="black"/>
</g>
<g id="Group_4" opacity="0.2">
<path id="Vector_71" d="M113.289 49.3169L117.658 43.5078L120.345 47.1586L122.18 45.2183L125.783 49.3572L113.289 49.3169Z" fill="black"/>
</g>
<path id="Vector_72" d="M126.178 52.2528C126.178 52.3093 123.386 52.3577 119.941 52.3577C116.496 52.3577 113.7 52.3093 113.7 52.2528C113.7 52.1964 116.492 52.1479 119.941 52.1479C123.39 52.1479 126.178 52.1923 126.178 52.2528Z" fill="#263238"/>
<path id="Vector_73" d="M123.843 53.6648C122.545 53.7686 121.243 53.8036 119.942 53.7696C118.639 53.8037 117.336 53.7687 116.037 53.6648C117.336 53.5584 118.639 53.5234 119.942 53.5599C121.243 53.5234 122.546 53.5585 123.843 53.6648Z" fill="#E0E0E0"/>
<path id="Vector_74" d="M133.5 49.3165L145.994 49.3568V39.9857L133.528 39.9453L133.5 49.3165Z" fill="#003366"/>
<g id="Group_5" opacity="0.2">
<path id="Vector_75" d="M141.717 42.8056C141.717 43.0005 141.659 43.1909 141.551 43.3529C141.442 43.5148 141.288 43.641 141.108 43.7154C140.928 43.7898 140.73 43.809 140.539 43.7707C140.348 43.7324 140.172 43.6382 140.035 43.5002C139.897 43.3621 139.804 43.1864 139.766 42.9952C139.729 42.8039 139.749 42.6059 139.824 42.4261C139.899 42.2463 140.026 42.0929 140.188 41.9852C140.351 41.8775 140.542 41.8205 140.736 41.8213C140.865 41.8213 140.993 41.8468 141.112 41.8963C141.232 41.9458 141.34 42.0184 141.431 42.1098C141.522 42.2013 141.594 42.3098 141.643 42.4292C141.692 42.5486 141.717 42.6765 141.717 42.8056Z" fill="black"/>
</g>
<g id="Group_6" opacity="0.2">
<path id="Vector_76" d="M133.499 49.3159L137.872 43.5068L140.555 47.1577L142.39 45.2173L145.993 49.3562L133.499 49.3159Z" fill="black"/>
</g>
<path id="Vector_77" d="M146.388 52.2528C146.388 52.3093 143.597 52.3577 140.152 52.3577C136.707 52.3577 133.911 52.3093 133.911 52.2528C133.911 52.1964 136.707 52.1479 140.152 52.1479C143.597 52.1479 146.388 52.1923 146.388 52.2528Z" fill="#263238"/>
<path id="Vector_78" d="M144.054 53.6652C142.756 53.7691 141.454 53.8041 140.153 53.7701C138.852 53.8041 137.549 53.7691 136.252 53.6652C137.549 53.5589 138.852 53.5239 140.153 53.5603C141.454 53.5239 142.756 53.5589 144.054 53.6652Z" fill="#E0E0E0"/>
<path id="Vector_79" d="M152.569 48.9413L165.067 48.9817V39.6146L152.602 39.5742L152.569 48.9413Z" fill="#003366"/>
<g id="Group_7" opacity="0.2">
<path id="Vector_80" d="M160.798 42.4345C160.798 42.6296 160.74 42.8202 160.631 42.9822C160.523 43.1443 160.369 43.2704 160.188 43.3447C160.008 43.4189 159.81 43.4379 159.618 43.3993C159.427 43.3607 159.252 43.2661 159.115 43.1277C158.977 42.9892 158.884 42.813 158.847 42.6216C158.81 42.4301 158.831 42.2319 158.906 42.0522C158.982 41.8725 159.11 41.7194 159.272 41.6122C159.435 41.505 159.626 41.4486 159.821 41.4502C159.95 41.4508 160.078 41.4766 160.196 41.5264C160.315 41.5761 160.423 41.6488 160.513 41.7402C160.604 41.8316 160.676 41.94 160.725 42.0591C160.773 42.1782 160.798 42.3058 160.798 42.4345Z" fill="black"/>
</g>
<g id="Group_8" opacity="0.2">
<path id="Vector_81" d="M152.569 48.9414L156.942 43.1323L159.629 46.7872L161.464 44.8428L165.067 48.9817L152.569 48.9414Z" fill="black"/>
</g>
<path id="Vector_82" d="M165.462 51.8824C165.462 51.9388 162.666 51.9872 159.221 51.9872C155.776 51.9872 152.984 51.9388 152.984 51.8824C152.984 51.8259 155.776 51.7734 159.221 51.7734C162.666 51.7734 165.462 51.8218 165.462 51.8824Z" fill="#263238"/>
<path id="Vector_83" d="M163.122 53.2898C161.825 53.3961 160.523 53.4311 159.221 53.3947C157.92 53.4311 156.618 53.3961 155.32 53.2898C156.618 53.1859 157.92 53.1509 159.221 53.1849C160.523 53.1509 161.825 53.1859 163.122 53.2898Z" fill="#E0E0E0"/>
<path id="Vector_84" d="M113.289 66.1342L125.783 66.1745V56.8074L113.317 56.7671L113.289 66.1342Z" fill="#003366"/>
<g id="Group_9" opacity="0.2">
<path id="Vector_85" d="M121.503 59.6196C121.502 59.8135 121.443 60.0027 121.335 60.1635C121.227 60.3243 121.073 60.4493 120.894 60.5227C120.714 60.5962 120.517 60.6148 120.327 60.5762C120.137 60.5376 119.963 60.4435 119.826 60.3058C119.69 60.1682 119.597 59.9931 119.56 59.8028C119.523 59.6125 119.543 59.4155 119.618 59.2367C119.693 59.0579 119.819 58.9053 119.981 58.7982C120.143 58.6912 120.332 58.6345 120.526 58.6353C120.655 58.6358 120.782 58.6617 120.901 58.7114C121.02 58.7612 121.128 58.8338 121.218 58.9252C121.309 59.0166 121.381 59.125 121.429 59.2441C121.478 59.3633 121.503 59.4908 121.503 59.6196Z" fill="black"/>
</g>
<g id="Group_10" opacity="0.2">
<path id="Vector_86" d="M113.289 66.1347L117.658 60.3257L120.345 63.9765L122.18 62.0361L125.783 66.1751L113.289 66.1347Z" fill="black"/>
</g>
<path id="Vector_87" d="M126.178 69.0712C126.178 69.1277 123.386 69.1761 119.941 69.1761C116.496 69.1761 113.7 69.1277 113.7 69.0712C113.7 69.0147 116.492 68.9663 119.941 68.9663C123.39 68.9663 126.178 69.0147 126.178 69.0712Z" fill="#263238"/>
<path id="Vector_88" d="M123.843 70.4832C122.545 70.5871 121.243 70.6221 119.942 70.5881C118.639 70.6221 117.336 70.5871 116.037 70.4832C117.336 70.3793 118.639 70.3443 119.942 70.3783C121.243 70.3443 122.545 70.3793 123.843 70.4832Z" fill="#E0E0E0"/>
<path id="Vector_89" d="M133.5 66.1342L145.994 66.1745V56.8074L133.528 56.7671L133.5 66.1342Z" fill="#003366"/>
<g id="Group_11" opacity="0.2">
<path id="Vector_90" d="M141.717 59.6196C141.717 59.8144 141.659 60.0049 141.551 60.1668C141.442 60.3288 141.288 60.455 141.108 60.5293C140.928 60.6037 140.73 60.623 140.539 60.5847C140.348 60.5464 140.172 60.4522 140.035 60.3141C139.897 60.1761 139.804 60.0003 139.766 59.8091C139.729 59.6179 139.749 59.4199 139.824 59.2401C139.899 59.0603 140.026 58.9069 140.188 58.7992C140.351 58.6915 140.542 58.6345 140.736 58.6353C140.997 58.6363 141.246 58.7405 141.43 58.925C141.614 59.1095 141.717 59.3592 141.717 59.6196Z" fill="black"/>
</g>
<g id="Group_12" opacity="0.2">
<path id="Vector_91" d="M133.499 66.1342L137.872 60.3252L140.555 63.976L142.39 62.0356L145.993 66.1746L133.499 66.1342Z" fill="black"/>
</g>
<path id="Vector_92" d="M146.388 69.0712C146.388 69.1277 143.597 69.1761 140.152 69.1761C136.707 69.1761 133.911 69.1277 133.911 69.0712C133.911 69.0147 136.707 68.9663 140.152 68.9663C143.597 68.9663 146.388 69.0147 146.388 69.0712Z" fill="#263238"/>
<path id="Vector_93" d="M144.054 70.4832C142.756 70.5871 141.454 70.6221 140.153 70.5881C138.852 70.6221 137.549 70.5871 136.252 70.4832C137.549 70.3793 138.852 70.3443 140.153 70.3783C141.454 70.3443 142.756 70.3793 144.054 70.4832Z" fill="#E0E0E0"/>
<path id="Vector_94" d="M152.569 65.7637L165.067 65.8041V56.4329L152.602 56.3926L152.569 65.7637Z" fill="#003366"/>
<g id="Group_13" opacity="0.2">
<path id="Vector_95" d="M160.798 59.2524C160.798 59.4474 160.74 59.6381 160.631 59.8001C160.523 59.9621 160.369 60.0883 160.188 60.1625C160.008 60.2368 159.81 60.2558 159.618 60.2172C159.427 60.1785 159.252 60.084 159.115 59.9455C158.977 59.8071 158.884 59.6309 158.847 59.4394C158.81 59.248 158.831 59.0498 158.906 58.8701C158.982 58.6904 159.11 58.5372 159.272 58.4301C159.435 58.3229 159.626 58.2665 159.821 58.2681C159.95 58.2686 160.078 58.2945 160.196 58.3443C160.315 58.394 160.423 58.4667 160.513 58.5581C160.604 58.6495 160.676 58.7578 160.725 58.877C160.773 58.9961 160.798 59.1237 160.798 59.2524Z" fill="black"/>
</g>
<g id="Group_14" opacity="0.2">
<path id="Vector_96" d="M152.569 65.7636L156.942 59.9546L159.629 63.6054L161.464 61.665L165.067 65.804L152.569 65.7636Z" fill="black"/>
</g>
<path id="Vector_97" d="M165.462 68.7001C165.462 68.7566 162.666 68.805 159.221 68.805C155.776 68.805 152.984 68.7566 152.984 68.7001C152.984 68.6436 155.776 68.5952 159.221 68.5952C162.666 68.5952 165.462 68.6396 165.462 68.7001Z" fill="#263238"/>
<path id="Vector_98" d="M163.122 70.1081C161.825 70.212 160.523 70.247 159.221 70.213C157.92 70.247 156.618 70.212 155.32 70.1081C156.618 70.0018 157.92 69.9668 159.221 70.0032C160.523 69.9668 161.825 70.0018 163.122 70.1081Z" fill="#E0E0E0"/>
<path id="Vector_99" d="M113.289 83.2149L125.783 83.2552V73.8841L113.317 73.8438L113.289 83.2149Z" fill="#003366"/>
<g id="Group_15" opacity="0.2">
<path id="Vector_100" d="M121.503 76.7036C121.502 76.8974 121.443 77.0867 121.335 77.2475C121.227 77.4082 121.073 77.5333 120.894 77.6067C120.714 77.6802 120.517 77.6988 120.327 77.6602C120.137 77.6216 119.963 77.5275 119.826 77.3898C119.69 77.2522 119.597 77.0771 119.56 76.8868C119.523 76.6965 119.543 76.4995 119.618 76.3207C119.693 76.1418 119.819 75.9893 119.981 75.8822C120.143 75.7752 120.332 75.7185 120.526 75.7192C120.655 75.7192 120.783 75.7448 120.902 75.7943C121.021 75.8439 121.129 75.9165 121.219 76.008C121.31 76.0995 121.382 76.2081 121.431 76.3275C121.479 76.4469 121.504 76.5747 121.503 76.7036Z" fill="black"/>
</g>
<g id="Group_16" opacity="0.2">
<path id="Vector_101" d="M113.289 83.2148L117.658 77.4058L120.345 81.0566L122.18 79.1122L125.783 83.2552L113.289 83.2148Z" fill="black"/>
</g>
<path id="Vector_102" d="M126.178 86.1518C126.178 86.2082 123.386 86.2566 119.941 86.2566C116.496 86.2566 113.7 86.2082 113.7 86.1518C113.7 86.0953 116.492 86.0469 119.941 86.0469C123.39 86.0469 126.178 86.0913 126.178 86.1518Z" fill="#263238"/>
<path id="Vector_103" d="M123.843 87.5632C122.545 87.6671 121.243 87.7021 119.942 87.6681C118.639 87.7021 117.336 87.6671 116.037 87.5632C117.336 87.4568 118.639 87.4218 119.942 87.4583C121.243 87.4219 122.546 87.4569 123.843 87.5632Z" fill="#E0E0E0"/>
<path id="Vector_104" d="M133.5 83.2149L145.994 83.2552V73.8841L133.528 73.8438L133.5 83.2149Z" fill="#003366"/>
<g id="Group_17" opacity="0.2">
<path id="Vector_105" d="M141.717 76.7036C141.717 76.8984 141.659 77.0889 141.551 77.2508C141.442 77.4128 141.288 77.5389 141.108 77.6133C140.928 77.6877 140.73 77.707 140.539 77.6686C140.348 77.6303 140.172 77.5362 140.035 77.3981C139.897 77.2601 139.804 77.0843 139.766 76.8931C139.729 76.7019 139.749 76.5039 139.824 76.3241C139.899 76.1443 140.026 75.9908 140.188 75.8832C140.351 75.7755 140.542 75.7184 140.736 75.7192C140.865 75.7192 140.993 75.7447 141.112 75.7943C141.232 75.8438 141.34 75.9163 141.431 76.0078C141.522 76.0992 141.594 76.2078 141.643 76.3272C141.692 76.4466 141.717 76.5745 141.717 76.7036Z" fill="black"/>
</g>
<g id="Group_18" opacity="0.2">
<path id="Vector_106" d="M133.499 83.2148L137.872 77.4058L140.555 81.0566L142.39 79.1122L145.993 83.2552L133.499 83.2148Z" fill="black"/>
</g>
<path id="Vector_107" d="M146.388 86.1518C146.388 86.2082 143.597 86.2566 140.152 86.2566C136.707 86.2566 133.911 86.2082 133.911 86.1518C133.911 86.0953 136.707 86.0469 140.152 86.0469C143.597 86.0469 146.388 86.0913 146.388 86.1518Z" fill="#263238"/>
<path id="Vector_108" d="M144.054 87.5632C142.756 87.667 141.454 87.702 140.153 87.668C138.852 87.702 137.549 87.667 136.252 87.5632C137.549 87.4568 138.852 87.4218 140.153 87.4583C141.454 87.4218 142.756 87.4568 144.054 87.5632Z" fill="#E0E0E0"/>
<path id="Vector_109" d="M152.569 82.8398L165.067 82.8801V73.513L152.602 73.4727L152.569 82.8398Z" fill="#003366"/>
<g id="Group_19" opacity="0.2">
<path id="Vector_110" d="M160.798 76.3286C160.798 76.5236 160.74 76.7142 160.631 76.8763C160.523 77.0383 160.369 77.1645 160.188 77.2387C160.008 77.313 159.81 77.332 159.618 77.2934C159.427 77.2547 159.252 77.1602 159.115 77.0217C158.977 76.8832 158.884 76.7071 158.847 76.5156C158.81 76.3242 158.831 76.126 158.906 75.9463C158.982 75.7666 159.11 75.6134 159.272 75.5062C159.435 75.399 159.626 75.3427 159.821 75.3443C159.95 75.3448 160.078 75.3707 160.196 75.4204C160.315 75.4702 160.423 75.5428 160.513 75.6342C160.604 75.7256 160.676 75.834 160.725 75.9531C160.773 76.0723 160.798 76.1999 160.798 76.3286Z" fill="black"/>
</g>
<g id="Group_20" opacity="0.2">
<path id="Vector_111" d="M152.569 82.8393L156.942 77.0303L159.629 80.6851L161.464 78.7407L165.067 82.8797L152.569 82.8393Z" fill="black"/>
</g>
<path id="Vector_112" d="M165.462 85.7763C165.462 85.8368 162.666 85.8812 159.221 85.8812C155.776 85.8812 152.984 85.8368 152.984 85.7763C152.984 85.7158 155.776 85.6714 159.221 85.6714C162.666 85.6714 165.462 85.7198 165.462 85.7763Z" fill="#263238"/>
<path id="Vector_113" d="M163.122 87.1883C161.825 87.2946 160.523 87.3296 159.221 87.2931C157.92 87.3296 156.618 87.2946 155.32 87.1883C156.618 87.0844 157.92 87.0494 159.221 87.0834C160.523 87.0494 161.825 87.0844 163.122 87.1883Z" fill="#E0E0E0"/>
<path id="Vector_114" d="M95.0151 0.121094H12.8613V75.5904H95.0151V0.121094Z" fill="white"/>
<path id="Vector_115" d="M12.7646 72.9965L95.0152 73.2587V11.5859L12.9623 11.3237L12.7646 72.9965Z" fill="#003366"/>
<g id="Group_21" opacity="0.2">
<path id="Vector_116" d="M66.8494 30.1385C66.8438 31.4139 66.4605 32.659 65.7479 33.7167C65.0353 34.7744 64.0253 35.5973 62.8454 36.0815C61.6655 36.5657 60.3686 36.6895 59.1184 36.4373C57.8683 36.1851 56.7208 35.5681 55.821 34.6643C54.9211 33.7605 54.3092 32.6104 54.0624 31.3591C53.8156 30.1079 53.9451 28.8115 54.4344 27.6338C54.9238 26.456 55.7511 25.4496 56.8119 24.7416C57.8727 24.0336 59.1195 23.6558 60.3949 23.6558C61.2449 23.6558 62.0865 23.8236 62.8714 24.1498C63.6564 24.4759 64.3692 24.9539 64.9689 25.5562C65.5686 26.1586 66.0435 26.8734 66.3662 27.6598C66.6889 28.4462 66.8531 29.2885 66.8494 30.1385Z" fill="black"/>
</g>
<g id="Group_22" opacity="0.2">
<path id="Vector_117" d="M12.7637 72.9959L41.5467 34.7529L59.22 58.796L71.302 46.012L95.0142 73.2581L12.7637 72.9959Z" fill="black"/>
</g>
<path id="Vector_118" d="M16.1537 3.11443C16.1537 3.274 16.1063 3.42999 16.0177 3.56267C15.929 3.69535 15.803 3.79876 15.6556 3.85983C15.5082 3.92089 15.346 3.93687 15.1895 3.90574C15.0329 3.87461 14.8892 3.79777 14.7763 3.68493C14.6635 3.5721 14.5867 3.42834 14.5555 3.27183C14.5244 3.11532 14.5404 2.9531 14.6015 2.80568C14.6625 2.65825 14.7659 2.53224 14.8986 2.44359C15.0313 2.35494 15.1873 2.30762 15.3469 2.30762C15.5608 2.30762 15.766 2.39262 15.9174 2.54393C16.0687 2.69523 16.1537 2.90045 16.1537 3.11443Z" fill="#E0E0E0"/>
<path id="Vector_119" d="M18.7103 3.14275C18.7103 3.30232 18.663 3.45831 18.5743 3.59099C18.4857 3.72367 18.3597 3.82708 18.2122 3.88815C18.0648 3.94921 17.9026 3.96519 17.7461 3.93406C17.5896 3.90293 17.4458 3.82609 17.333 3.71325C17.2202 3.60042 17.1433 3.45666 17.1122 3.30015C17.0811 3.14365 17.097 2.98142 17.1581 2.834C17.2192 2.68657 17.3226 2.56056 17.4553 2.47191C17.5879 2.38326 17.7439 2.33594 17.9035 2.33594C18.1175 2.33594 18.3227 2.42094 18.474 2.57225C18.6253 2.72355 18.7103 2.92877 18.7103 3.14275Z" fill="#E0E0E0"/>
<path id="Vector_120" d="M21.2718 3.1867C21.2718 3.34627 21.2245 3.50226 21.1359 3.63494C21.0472 3.76762 20.9212 3.87103 20.7738 3.93209C20.6263 3.99316 20.4641 4.00914 20.3076 3.97801C20.1511 3.94688 20.0074 3.87003 19.8945 3.7572C19.7817 3.64436 19.7048 3.5006 19.6737 3.3441C19.6426 3.18759 19.6586 3.02537 19.7196 2.87794C19.7807 2.73052 19.8841 2.60451 20.0168 2.51585C20.1495 2.4272 20.3054 2.37988 20.465 2.37988C20.679 2.37988 20.8842 2.46489 21.0355 2.61619C21.1868 2.7675 21.2718 2.97272 21.2718 3.1867Z" fill="#E0E0E0"/>
<path id="Vector_121" d="M95.0151 6.05127H12.8613V11.586H95.0151V6.05127Z" fill="#F5F5F5"/>
<path id="Vector_122" d="M69.6481 3.21524C69.6481 3.27172 63.3589 3.32012 55.6014 3.32012C47.8439 3.32012 41.5508 3.27172 41.5508 3.21524C41.5508 3.15876 47.8399 3.11035 55.6014 3.11035C63.363 3.11035 69.6481 3.14262 69.6481 3.21524Z" fill="#263238"/>
<path id="Vector_123" d="M95.0154 75.5903C95.0154 74.8319 94.9791 45.476 94.9267 0.121022L95.0154 0.209772H12.8697L12.9746 0.104887C12.9746 27.6051 12.9746 53.4594 12.9746 75.5742L12.8818 75.4814L95.0356 75.5742L12.8818 75.667H12.7891V75.5742C12.7891 53.4594 12.7891 27.6051 12.7891 0.104887V0H12.902H95.0477H95.1365V0.0927833C95.0437 45.476 95.0154 74.8319 95.0154 75.5903Z" fill="#263238"/>
<path id="Vector_124" d="M95.0149 41.3331C97.6751 41.3331 99.8316 39.1766 99.8316 36.5164C99.8316 33.8562 97.6751 31.6997 95.0149 31.6997C92.3547 31.6997 90.1982 33.8562 90.1982 36.5164C90.1982 39.1766 92.3547 41.3331 95.0149 41.3331Z" fill="#F5F5F5"/>
<path id="Vector_125" d="M95.0147 41.3453C94.0573 41.3453 93.1213 41.0614 92.3253 40.5295C91.5292 39.9976 90.9087 39.2415 90.5423 38.357C90.1759 37.4724 90.0801 36.4991 90.2668 35.56C90.4536 34.621 90.9147 33.7584 91.5917 33.0814C92.2687 32.4044 93.1313 31.9434 94.0703 31.7566C95.0093 31.5698 95.9827 31.6657 96.8672 32.0321C97.7518 32.3985 98.5078 33.0189 99.0397 33.815C99.5717 34.6111 99.8556 35.547 99.8556 36.5045C99.8556 37.7883 99.3456 39.0196 98.4377 39.9275C97.5299 40.8353 96.2986 41.3453 95.0147 41.3453ZM95.0147 31.7079C94.0637 31.7079 93.134 31.99 92.3432 32.5183C91.5524 33.0467 90.9361 33.7977 90.5721 34.6764C90.2082 35.555 90.113 36.5219 90.2985 37.4547C90.484 38.3874 90.942 39.2443 91.6145 39.9168C92.287 40.5892 93.1438 41.0472 94.0766 41.2328C95.0094 41.4183 95.9762 41.3231 96.8549 40.9591C97.7335 40.5952 98.4845 39.9788 99.0129 39.1881C99.5413 38.3973 99.8233 37.4676 99.8233 36.5166C99.8222 35.2416 99.3153 34.0191 98.4137 33.1175C97.5122 32.216 96.2897 31.709 95.0147 31.7079Z" fill="#263238"/>
<path id="Vector_126" d="M95.0149 41.3331C97.6751 41.3331 99.8316 39.1766 99.8316 36.5164C99.8316 33.8562 97.6751 31.6997 95.0149 31.6997C92.3547 31.6997 90.1982 33.8562 90.1982 36.5164C90.1982 39.1766 92.3547 41.3331 95.0149 41.3331Z" fill="#F5F5F5"/>
<path id="Vector_127" d="M99.8351 36.5165C99.7922 36.1246 99.7275 35.7354 99.6415 35.3506C99.4104 34.4744 98.9351 33.6819 98.2708 33.0656C97.6066 32.4492 96.7808 32.0343 95.8898 31.8692C95.0585 31.7191 94.2022 31.7929 93.4089 32.083C92.5332 32.4051 91.7715 32.9775 91.2184 33.7289C90.6234 34.5366 90.3024 35.5134 90.3024 36.5165C90.3024 37.5196 90.6234 38.4964 91.2184 39.304C91.7715 40.0555 92.5332 40.6278 93.4089 40.9499C94.0313 41.1764 94.6941 41.2705 95.355 41.2262C96.0159 41.1819 96.6602 41.0001 97.2468 40.6926C97.8334 40.385 98.3494 39.9584 98.7618 39.4401C99.1741 38.9218 99.4737 38.3231 99.6415 37.6823C99.7275 37.2976 99.7922 36.9084 99.8351 36.5165C99.8472 36.744 99.8391 36.9721 99.8109 37.1982C99.7937 37.3683 99.764 37.5368 99.7222 37.7025C99.4689 38.7778 98.8518 39.7326 97.9754 40.4053C97.3263 40.9066 96.5613 41.236 95.751 41.3629C94.9408 41.4898 94.1116 41.4102 93.3403 41.1314C92.8926 40.976 92.472 40.7514 92.0938 40.4658C91.6936 40.1766 91.3422 39.8252 91.053 39.425C90.4294 38.5835 90.0928 37.5639 90.0928 36.5165C90.0928 35.4691 90.4294 34.4494 91.053 33.6079C91.3422 33.2077 91.6936 32.8564 92.0938 32.5671C92.472 32.2816 92.8926 32.057 93.3403 31.9015C94.1116 31.6227 94.9408 31.5431 95.751 31.67C96.5613 31.797 97.3263 32.1263 97.9754 32.6276C98.8518 33.3003 99.4689 34.2551 99.7222 35.3305C99.764 35.4962 99.7937 35.6647 99.8109 35.8347C99.8391 36.0608 99.8472 36.289 99.8351 36.5165Z" fill="#263238"/>
<path id="Vector_128" d="M94.6398 38.0573C94.5853 38.0572 94.533 38.0354 94.4946 37.9968C94.4573 37.9584 94.4365 37.907 94.4365 37.8536C94.4365 37.8001 94.4573 37.7488 94.4946 37.7104L95.7048 36.5002L94.4946 35.2899C94.4573 35.2515 94.4365 35.2002 94.4365 35.1467C94.4365 35.0933 94.4573 35.0419 94.4946 35.0035C94.5133 34.9846 94.5356 34.9696 94.5602 34.9594C94.5848 34.9491 94.6111 34.9438 94.6378 34.9438C94.6644 34.9438 94.6908 34.9491 94.7153 34.9594C94.7399 34.9696 94.7622 34.9846 94.781 35.0035L96.1203 36.3428C96.1572 36.3805 96.1779 36.4312 96.1779 36.484C96.1779 36.5368 96.1572 36.5875 96.1203 36.6252L94.781 37.9645C94.7655 37.9893 94.7449 38.0104 94.7206 38.0264C94.6962 38.0424 94.6686 38.053 94.6398 38.0573Z" fill="#263238"/>
<path id="Vector_129" d="M14.169 42.2917C16.6174 41.2515 17.7588 38.4234 16.7186 35.9751C15.6783 33.5267 12.8502 32.3852 10.4019 33.4255C7.95352 34.4658 6.81205 37.2939 7.85232 39.7422C8.89259 42.1905 11.7207 43.332 14.169 42.2917Z" fill="#F5F5F5"/>
<path id="Vector_130" d="M7.47156 37.8557C7.50892 38.2481 7.57226 38.6376 7.66116 39.0216C7.94198 40.0603 8.56085 40.9758 9.42001 41.6235C10.0131 42.0726 10.7044 42.374 11.437 42.503C12.2684 42.6529 13.1246 42.5791 13.918 42.2892C14.7843 41.968 15.5384 41.4018 16.0883 40.6594C16.6833 39.8518 17.0043 38.875 17.0043 37.8719C17.0043 36.8687 16.6833 35.8919 16.0883 35.0843C15.5384 34.3298 14.7756 33.7567 13.8978 33.4384C13.1557 33.1654 12.3569 33.0829 11.5746 33.1985C10.7923 33.3141 10.0515 33.6241 9.42001 34.1C8.56011 34.7488 7.94117 35.6659 7.66116 36.706C7.57159 37.0899 7.50824 37.4794 7.47156 37.8719C7.46177 37.7686 7.46177 37.6646 7.47156 37.5612C7.4705 37.437 7.47995 37.3128 7.4998 37.1901C7.51477 37.0198 7.54446 36.8511 7.58855 36.6858C7.84186 35.6105 8.45892 34.6557 9.3353 33.983C9.93724 33.5158 10.6406 33.1965 11.3886 33.0512C12.2509 32.8883 13.1409 32.9594 13.9664 33.2569C14.4145 33.4115 14.8352 33.6362 15.2129 33.9225C15.6153 34.2105 15.9682 34.5621 16.2578 34.9633C16.8813 35.8048 17.218 36.8245 17.218 37.8719C17.218 38.9192 16.8813 39.9389 16.2578 40.7804C15.9682 41.1817 15.6153 41.5332 15.2129 41.8212C14.8317 42.1026 14.4082 42.3218 13.9583 42.4707C13.1877 42.7495 12.3592 42.8291 11.5496 42.7022C10.74 42.5752 9.97553 42.2458 9.32723 41.7446C8.45387 41.0716 7.83855 40.1187 7.58451 39.0458C7.54075 38.8805 7.51107 38.7118 7.49576 38.5415C7.47605 38.4175 7.4666 38.292 7.46753 38.1664C7.45888 38.0629 7.46023 37.9589 7.47156 37.8557Z" fill="#263238"/>
<path id="Vector_131" d="M12.6798 39.3966C12.6534 39.3965 12.6273 39.391 12.6031 39.3806C12.5789 39.3702 12.5569 39.3551 12.5386 39.3361L11.1993 37.9968C11.1804 37.978 11.1654 37.9557 11.1552 37.9311C11.1449 37.9066 11.1396 37.8802 11.1396 37.8536C11.1396 37.8269 11.1449 37.8006 11.1552 37.776C11.1654 37.7514 11.1804 37.7291 11.1993 37.7104L12.5386 36.3751C12.5574 36.3562 12.5797 36.3412 12.6043 36.3309C12.6288 36.3207 12.6552 36.3154 12.6818 36.3154C12.7085 36.3154 12.7348 36.3207 12.7594 36.3309C12.784 36.3412 12.8063 36.3562 12.825 36.3751C12.862 36.4128 12.8827 36.4635 12.8827 36.5163C12.8827 36.5691 12.862 36.6198 12.825 36.6575L11.6148 37.8677L12.825 39.0779C12.8623 39.1163 12.8831 39.1677 12.8831 39.2211C12.8831 39.2746 12.8623 39.3259 12.825 39.3643C12.7824 39.3928 12.7306 39.4043 12.6798 39.3966Z" fill="#263238"/>
</g>
<g id="Character">
<path id="Vector_132" d="M152.431 179.891L148.772 179.944L112.292 139.664L114.543 137.626L152.431 179.891Z" fill="#263238"/>
<path id="Vector_133" d="M112.446 179.891L108.121 179.738L147.554 137.836L149.761 139.913L112.446 179.891Z" fill="#263238"/>
<path id="Vector_134" d="M169.865 76.0386L145.988 76.6356L119.593 137.639L148.924 137.707L169.865 76.0386Z" fill="#455A64"/>
<path id="Vector_135" d="M173.072 78.6405L150.885 142.157H88.252V137.707H148.924L169.865 76.0386L173.072 78.6405Z" fill="#455A64"/>
<path id="Vector_136" d="M169.861 76.0386C169.861 76.0386 169.833 76.1475 169.768 76.3492L169.474 77.2569L168.316 80.7342L164.024 93.5061L149.747 135.63C149.501 136.356 149.259 137.074 149.029 137.744L149.005 137.82H148.924L105.933 137.784L92.984 137.748L89.4744 137.728L92.984 137.707L105.933 137.671L148.92 137.639L148.815 137.715C149.041 137.046 149.287 136.328 149.53 135.602L163.863 93.502L168.227 80.7504C168.748 79.2497 169.151 78.0838 169.438 77.2851L169.756 76.3895C169.821 76.1596 169.861 76.0386 169.861 76.0386Z" fill="#263238"/>
<path id="Vector_137" d="M140.453 179.944H135.701L99.2207 139.664L101.472 137.626L140.453 179.944Z" fill="#455A64"/>
<path id="Vector_138" d="M99.3024 179.891H94.9053L134.483 137.836L136.69 139.913L99.3024 179.891Z" fill="#455A64"/>
<path id="Vector_139" d="M131.514 156.026H117.362V159.302H131.514V156.026Z" fill="#455A64"/>
<path id="Vector_140" d="M137.235 50.2002C139.699 49.9461 141.781 51.0071 143.75 52.536C145.707 54.0866 147.146 56.1976 147.872 58.5871C148.689 61.0895 148.67 63.7898 147.816 66.28C147.382 67.5147 146.702 68.6485 145.817 69.613C144.932 70.5775 143.861 71.3526 142.668 71.8914C139.393 73.2953 135.371 72.4683 132.676 70.1366C129.981 67.8049 128.59 64.15 128.686 60.588C128.719 58.1155 129.529 55.716 131.002 53.73C131.743 52.7471 132.68 51.9274 133.752 51.3222C134.824 50.717 136.01 50.3392 137.235 50.2123" fill="#263238"/>
<path id="Vector_141" d="M143.628 58.946C143.329 57.9899 143.535 56.9572 143.458 55.9608C143.293 53.7622 141.651 51.9025 139.678 50.9222C137.843 50.0065 135.527 50.0307 133.224 50.6156C131.612 50.9883 130.141 51.8142 128.984 52.9958C128.246 53.7997 127.711 54.7681 127.422 55.8206C127.134 56.873 127.101 57.9791 127.326 59.0468L138.569 58.1553C139.557 59.0872 140.566 60.0312 141.796 60.5959C142.15 60.7813 142.547 60.8716 142.946 60.8581C143.145 60.8478 143.337 60.7803 143.499 60.6637C143.66 60.547 143.785 60.3863 143.858 60.2006C143.979 59.7932 143.753 59.3615 143.628 58.946Z" fill="#263238"/>
<path id="Vector_142" d="M132.768 53.6736L142.357 56.3926C142.809 56.4527 143.221 56.68 143.513 57.0295C143.805 57.3791 143.956 57.8255 143.934 58.2805L142.442 79.3181C142.338 80.7547 141.764 82.1171 140.808 83.1949L139.82 84.3123C137.528 86.8982 133.26 86.3293 131.848 83.1908C131.761 83.0102 131.697 82.819 131.659 82.622C131.63 82.4632 131.61 82.3029 131.598 82.142C131.5 81.0785 131.514 80.0077 131.639 78.947C131.667 77.0671 131.687 76.2926 131.687 76.3128C131.687 76.3329 127.738 75.5503 127.056 70.3545C126.713 67.7727 126.955 63.5571 127.266 60.116C127.528 57.0178 129.682 53.2662 132.768 53.6736Z" fill="#FFBE9D"/>
<path id="Vector_143" d="M128.468 64.162C128.463 64.3346 128.524 64.5026 128.64 64.6305C128.756 64.7585 128.917 64.8364 129.089 64.8478C129.174 64.8573 129.259 64.8496 129.341 64.8253C129.422 64.801 129.498 64.7606 129.564 64.7063C129.629 64.6521 129.683 64.5853 129.722 64.5098C129.761 64.4343 129.785 64.3517 129.791 64.2669C129.797 64.0944 129.735 63.9264 129.619 63.7984C129.503 63.6705 129.342 63.5926 129.17 63.5811C129.086 63.5723 129 63.5803 128.919 63.6048C128.838 63.6294 128.762 63.6699 128.697 63.724C128.632 63.7781 128.578 63.8447 128.538 63.9199C128.499 63.9952 128.475 64.0775 128.468 64.162Z" fill="#263238"/>
<path id="Vector_144" d="M128.122 62.3348C128.202 62.4235 128.715 62.0645 129.429 62.0846C130.143 62.1048 130.639 62.4881 130.736 62.3912C130.833 62.2944 130.695 62.1936 130.47 62.0241C130.168 61.8006 129.804 61.6765 129.429 61.6691C129.057 61.6588 128.691 61.7661 128.384 61.9757C128.146 62.1411 128.065 62.2944 128.122 62.3348Z" fill="#263238"/>
<path id="Vector_145" d="M134.862 64.4203C134.855 64.5932 134.916 64.7617 135.033 64.8899C135.149 65.0181 135.31 65.0957 135.483 65.1061C135.567 65.115 135.652 65.1069 135.733 65.0823C135.814 65.0578 135.89 65.0172 135.955 64.9631C136.02 64.9089 136.073 64.8422 136.112 64.767C136.151 64.6918 136.174 64.6096 136.181 64.5252C136.188 64.3524 136.126 64.1838 136.01 64.0556C135.894 63.9275 135.732 63.8499 135.56 63.8394C135.476 63.8306 135.39 63.8386 135.309 63.8632C135.228 63.8878 135.153 63.9283 135.088 63.9825C135.023 64.0367 134.969 64.1033 134.931 64.1785C134.892 64.2537 134.868 64.3359 134.862 64.4203Z" fill="#263238"/>
<path id="Vector_146" d="M134.878 62.6048C134.959 62.6895 135.471 62.3345 136.185 62.3547C136.899 62.3748 137.395 62.7581 137.492 62.6613C137.589 62.5644 137.452 62.4636 137.226 62.2901C136.922 62.0691 136.557 61.9466 136.181 61.9392C135.811 61.9288 135.446 62.0362 135.14 62.2457C134.918 62.4071 134.838 62.5644 134.878 62.6048Z" fill="#263238"/>
<path id="Vector_147" d="M132.386 67.8771C132.013 67.7486 131.625 67.6687 131.232 67.6391C131.051 67.6149 130.881 67.5746 130.853 67.4495C130.841 67.2607 130.889 67.0729 130.99 66.913C131.172 66.4733 131.365 66.0174 131.567 65.5374C132.374 63.5808 132.951 61.9712 132.874 61.939C132.797 61.9067 132.067 63.4679 131.26 65.4244C131.071 65.9085 130.885 66.3684 130.708 66.8081C130.589 67.0244 130.549 67.2755 130.595 67.5181C130.619 67.5835 130.659 67.6422 130.71 67.6898C130.761 67.7374 130.822 67.7725 130.889 67.7924C130.989 67.8235 131.092 67.8412 131.196 67.8448C131.59 67.9057 131.99 67.9166 132.386 67.8771Z" fill="#263238"/>
<path id="Vector_148" d="M131.671 76.3126C134.105 76.413 136.52 75.8363 138.646 74.6465C138.646 74.6465 136.81 78.1803 131.643 77.5591L131.671 76.3126Z" fill="#EB996E"/>
<path id="Vector_149" d="M132.643 69.6079C132.783 69.4398 132.963 69.3104 133.167 69.232C133.371 69.1536 133.592 69.1289 133.809 69.1601C133.967 69.1771 134.12 69.2264 134.259 69.3047C134.398 69.3831 134.519 69.489 134.615 69.616C134.707 69.7374 134.76 69.8842 134.766 70.0365C134.772 70.1887 134.73 70.3391 134.648 70.4671C134.53 70.5927 134.378 70.6802 134.21 70.7183C134.043 70.7564 133.868 70.7434 133.708 70.6809C133.371 70.5506 133.063 70.3561 132.8 70.1081C132.723 70.0465 132.656 69.973 132.602 69.8903C132.576 69.8508 132.562 69.8045 132.562 69.7572C132.562 69.7098 132.576 69.6635 132.602 69.624" fill="#EB996E"/>
<path id="Vector_150" d="M134.475 68.4263C134.358 68.4263 134.338 69.1927 133.668 69.7252C132.998 70.2577 132.167 70.1286 132.159 70.2577C132.159 70.3061 132.337 70.4151 132.684 70.4312C133.138 70.452 133.585 70.3089 133.942 70.0278C134.288 69.7612 134.517 69.3706 134.58 68.9386C134.608 68.6199 134.527 68.4263 134.475 68.4263Z" fill="#263238"/>
<path id="Vector_151" d="M135.056 60.4911C135.121 60.6888 135.835 60.6162 136.67 60.7372C137.505 60.8582 138.178 61.1083 138.283 60.9349C138.336 60.8542 138.223 60.6686 137.956 60.475C137.599 60.234 137.191 60.0782 136.763 60.0195C136.336 59.9607 135.901 60.0006 135.492 60.1361C135.185 60.2491 135.028 60.3983 135.056 60.4911Z" fill="#263238"/>
<path id="Vector_152" d="M128.395 59.2163C128.516 59.3817 129.012 59.2163 129.605 59.2365C130.198 59.2566 130.695 59.3736 130.816 59.2082C130.868 59.1275 130.795 58.9621 130.582 58.8048C130.294 58.6104 129.953 58.509 129.605 58.5144C129.258 58.5118 128.918 58.6176 128.633 58.8169C128.415 58.9702 128.343 59.1356 128.395 59.2163Z" fill="#263238"/>
<path id="Vector_153" d="M145.508 57.5625C144.702 54.5329 140.555 50.2124 137.42 50.3012L132.297 53.0645C132.423 53.9222 132.777 54.7303 133.322 55.4044C133.867 56.0786 134.583 56.594 135.395 56.8969C136.266 57.2034 137.323 57.3285 137.815 58.1071C138.308 58.8856 137.949 60.0192 138.413 60.8381C139.054 61.9798 140.942 62.012 141.406 63.2344C141.612 63.7669 141.462 64.3841 141.676 64.9166C141.958 65.6225 143.669 66.5786 144.403 66.3809C145.137 66.1833 145.21 64.9529 145.464 64.3155C145.795 63.5998 145.868 62.7915 145.67 62.0282C145.424 60.5436 145.896 59.0067 145.508 57.5625Z" fill="#263238"/>
<path id="Vector_154" d="M142.241 66.8811C142.241 66.4979 142.721 65.6023 143.1 65.5499C144.12 65.4208 145.952 65.5499 145.9 68.1317C145.827 71.6574 142.301 70.8587 142.297 70.7578C142.293 70.657 142.2 68.2164 142.241 66.8811Z" fill="#FFBE9D"/>
<path id="Vector_155" d="M143.403 69.4466C143.403 69.4466 143.463 69.491 143.564 69.5394C143.712 69.5986 143.877 69.5986 144.024 69.5394C144.399 69.4103 144.726 68.8254 144.754 68.188C144.77 67.8857 144.718 67.5838 144.601 67.3045C144.57 67.1939 144.513 67.0925 144.434 67.0089C144.355 66.9253 144.258 66.862 144.149 66.8245C144.079 66.8053 144.004 66.8108 143.937 66.8402C143.87 66.8695 143.815 66.921 143.782 66.9858C143.734 67.0826 143.754 67.1553 143.734 67.1593C143.713 67.1633 143.661 67.0988 143.693 66.9536C143.715 66.8674 143.765 66.7908 143.834 66.7357C143.935 66.6671 144.057 66.6383 144.177 66.655C144.322 66.6862 144.456 66.7542 144.566 66.8525C144.676 66.9508 144.759 67.0759 144.807 67.2158C144.953 67.5223 145.02 67.8609 145 68.2001C144.964 68.9101 144.597 69.5676 144.072 69.7048C143.978 69.7314 143.878 69.7358 143.782 69.7176C143.685 69.6994 143.594 69.6591 143.516 69.5999C143.407 69.5313 143.391 69.4547 143.403 69.4466Z" fill="#EB996E"/>
<path id="Vector_156" d="M146.319 56.6992C146.379 55.5979 147.803 54.9686 148.888 54.7871C149.995 54.6668 151.108 54.9536 152.019 55.5939C152.563 55.9408 153.104 56.4007 153.189 57.0582C153.273 57.7158 152.616 58.4097 152.027 58.1434C152.311 58.2609 152.566 58.4396 152.773 58.667C152.98 58.8943 153.135 59.1646 153.226 59.4585C153.316 59.7525 153.341 60.0628 153.298 60.3674C153.255 60.672 153.145 60.9633 152.976 61.2206C152.808 61.4778 152.584 61.6947 152.322 61.8556C152.06 62.0165 151.766 62.1176 151.46 62.1516C151.154 62.1856 150.845 62.1517 150.553 62.0522C150.262 61.9528 149.997 61.7903 149.776 61.5764C150.017 62.6135 150.604 63.5372 151.442 64.1945C150.524 64.2644 149.603 64.0912 148.773 63.6923C147.943 63.2935 147.232 62.6831 146.713 61.9225C146.194 61.162 145.884 60.2781 145.815 59.3597C145.745 58.4414 145.919 57.521 146.319 56.6912V56.6992Z" fill="#263238"/>
<path id="Vector_157" d="M148.396 62.4438C148.521 62.108 148.588 61.7533 148.594 61.395C148.722 59.6587 148.263 57.9297 147.291 56.4855C147.109 56.1776 146.874 55.9044 146.597 55.6787C146.528 55.7191 147.634 56.9656 148.13 58.906C148.626 60.8463 148.315 62.4438 148.396 62.4438Z" fill="#003366"/>
<path id="Vector_158" d="M133.39 52.0555C132.987 53.4674 130.675 55.1617 129.646 56.2106C127.686 58.2276 127.278 58.9013 126.984 63.6574C126.234 61.9591 125.677 60.3092 125.866 58.4575C126.032 56.5933 126.875 54.8542 128.234 53.5682C128.918 52.9341 129.74 52.4686 130.635 52.2087C131.53 51.9489 132.473 51.9019 133.39 52.0716" fill="#263238"/>
<path id="Vector_159" d="M147.304 57.6306C147.105 57.6864 146.901 57.7242 146.695 57.7436C146.501 57.7718 146.259 57.8041 145.977 57.8202C145.694 57.8363 145.376 57.8727 145.017 57.8686C144.183 57.8835 143.35 57.8377 142.524 57.7315C141.511 57.5921 140.512 57.3723 139.534 57.0739C138.563 56.7612 137.618 56.37 136.71 55.904C135.97 55.5215 135.259 55.0832 134.585 54.593C134.29 54.3912 134.044 54.1895 133.822 54.004C133.6 53.8184 133.419 53.6651 133.277 53.528C133.118 53.3976 132.972 53.2516 132.842 53.0923C133.015 53.2037 133.178 53.3292 133.33 53.4675C133.483 53.5965 133.669 53.7498 133.895 53.9112C134.121 54.0726 134.371 54.2783 134.669 54.4679C135.349 54.9383 136.06 55.3602 136.799 55.7306C138.605 56.6462 140.55 57.2569 142.556 57.5378C143.374 57.6527 144.199 57.7134 145.025 57.7194C145.38 57.7194 145.698 57.7194 145.977 57.7194C146.255 57.7194 146.497 57.6951 146.695 57.675C146.897 57.6461 147.1 57.6313 147.304 57.6306Z" fill="#455A64"/>
<path id="Vector_160" d="M147.505 60.1809C147.373 60.2187 147.238 60.243 147.102 60.2535C146.723 60.2973 146.341 60.3202 145.96 60.3221C143.414 60.3503 140.908 59.6896 138.707 58.4099C138.376 58.2199 138.057 58.0112 137.751 57.7846C137.63 57.7093 137.52 57.6184 137.424 57.5143C137.448 57.4861 137.936 57.825 138.779 58.2808C140.986 59.4684 143.442 60.1181 145.948 60.1768C146.908 60.197 147.485 60.1405 147.505 60.1809Z" fill="#455A64"/>
<path id="Vector_161" d="M141.838 115.935L119.203 119.223C110.699 121.643 101.739 122.337 92.376 121.522L126.444 137.416L140.119 137.626C140.119 137.626 144.286 137.626 145.012 133.996C145.751 130.292 146.549 119.295 146.549 119.295C146.549 119.295 143.855 116.948 141.838 115.935Z" fill="#003366"/>
<g id="Group_23" opacity="0.3">
<path id="Vector_162" d="M141.769 125.468C142.141 127.733 142.276 130.032 142.172 132.326C142.868 131.562 143.381 130.651 143.673 129.659C143.964 128.668 144.026 127.624 143.854 126.605C143.657 125.488 143.193 124.257 143.778 123.285C144.181 122.632 145.21 121.881 145.056 121.135C145.056 121.135 144.149 121.135 143.322 121.103C142.66 121.075 141.305 121.034 141.305 121.034C141.999 122.825 141.946 123.931 141.668 125.532" fill="black"/>
</g>
<path id="Vector_163" d="M131.283 80.1449L142.587 79.1929L144.217 79.3583L137.008 85.2843L133.321 86.5671L130.085 85.0503L129.303 82.88L131.283 80.1449Z" fill="#FFBE9D"/>
<path id="Vector_164" d="M117.915 92.9048L113.659 106.399L104.538 119.284L110.307 123.435L120.275 111.131L123.611 95.886L117.915 92.9048Z" fill="#FFBE9D"/>
<path id="Vector_165" d="M116.067 90.4921C116.067 90.4921 120.218 84.2352 121.473 83.1218C122.982 81.7785 125.725 80.7417 125.725 80.7417L131.284 80.1447C131.284 80.1447 127.859 84.1062 131.788 84.5822C135.717 85.0582 144.217 79.3379 144.217 79.3379C144.217 79.3379 150.159 80.4473 151.636 81.3348C153.112 82.2222 156.84 84.4773 156.646 90.4719V95.2846C156.646 95.2846 145.435 94.8811 145.351 95.2846C145.266 95.688 142.991 113.361 142.991 113.361L137.295 116.802C137.295 116.802 121.929 119.739 120.945 119.937C119.96 120.134 120.69 94.9901 120.69 94.9901C120.69 94.9901 116.757 93.1425 116.067 90.4921Z" fill="#263238"/>
<path id="Vector_166" d="M122.199 114.999L143.176 111.849L145.339 95.3091H155.851C155.851 95.3091 153.354 106.964 152.806 109.949C151.999 114.237 149.07 119.969 147.501 121.05C145.932 122.132 120.933 119.961 120.933 119.961L122.199 114.999Z" fill="#FFBE9D"/>
<path id="Vector_167" d="M110.279 116.903C110.34 117.051 110.442 117.177 110.574 117.266C110.707 117.355 110.862 117.403 111.021 117.404C111.09 117.404 111.157 117.394 111.223 117.375C111.691 117.258 111.707 116.327 111.707 116.327L113.926 116.113C113.926 116.113 116.657 118.13 117.589 119.421C118.521 120.712 121.179 119.889 121.179 119.889L122.389 115.274L118.593 111.361C118.593 111.361 118.827 111.595 118.593 110.893C118.359 110.191 117.072 110.368 117.072 110.368C116.899 110.017 116.076 109.84 116.076 109.84L112.51 110.017C112.146 110.035 111.792 110.133 111.472 110.307C111.152 110.48 110.875 110.723 110.662 111.018L109.012 113.289C109.012 113.289 108.109 114.943 108.206 115.346C108.25 115.518 108.358 115.667 108.508 115.764C108.657 115.86 108.837 115.897 109.012 115.867C109.012 115.867 109.113 117 109.416 117.057C109.72 117.063 110.023 117.011 110.307 116.903H110.279Z" fill="#FFBE9D"/>
<path id="Vector_168" d="M118.036 114.047C118.036 114.084 117.564 114.007 116.805 113.991C115.819 113.974 114.835 114.092 113.881 114.342C113.357 114.483 112.844 114.663 112.348 114.883C111.904 115.096 111.444 115.266 111.287 115.568C111.251 115.633 111.232 115.706 111.232 115.78C111.232 115.854 111.251 115.927 111.287 115.992C111.345 116.096 111.434 116.18 111.541 116.234C111.638 116.274 111.742 116.296 111.847 116.298C111.847 116.298 111.73 116.391 111.505 116.298C111.37 116.25 111.256 116.16 111.178 116.04C111.122 115.959 111.089 115.864 111.081 115.766C111.073 115.667 111.091 115.569 111.133 115.48C111.241 115.28 111.405 115.118 111.605 115.012C111.807 114.899 112.009 114.782 112.251 114.677C112.752 114.441 113.273 114.251 113.808 114.108C114.783 113.848 115.794 113.75 116.801 113.818C117.222 113.829 117.639 113.906 118.036 114.047Z" fill="#EB996E"/>
<path id="Vector_169" d="M118.133 116.319C118.133 116.387 116.689 116.23 114.906 116.218C113.123 116.206 111.679 116.331 111.679 116.262C111.983 116.169 112.297 116.115 112.615 116.101C113.376 116.022 114.141 115.986 114.906 115.992C115.671 115.997 116.434 116.047 117.193 116.141C117.513 116.158 117.829 116.218 118.133 116.319Z" fill="#EB996E"/>
<path id="Vector_170" d="M110.307 116.823C110.291 116.696 110.291 116.567 110.307 116.44C110.306 116.093 110.327 115.747 110.371 115.403C110.4 115.163 110.449 114.925 110.517 114.693C110.601 114.419 110.738 114.164 110.92 113.942C111.304 113.43 111.785 112.998 112.336 112.672C112.88 112.341 113.468 112.09 114.083 111.925C114.59 111.816 115.109 111.773 115.628 111.796C116.067 111.796 116.435 111.841 116.661 111.865C116.789 111.868 116.917 111.889 117.04 111.929C116.57 111.965 116.098 111.973 115.628 111.954C115.125 111.955 114.624 112.015 114.135 112.131C113.543 112.299 112.976 112.546 112.449 112.865C111.922 113.18 111.458 113.591 111.081 114.076C110.777 114.468 110.587 114.937 110.533 115.431C110.371 116.278 110.371 116.827 110.307 116.823Z" fill="#EB996E"/>
<path id="Vector_171" d="M115.838 110.735C115.838 110.768 115.305 110.735 114.454 110.788C113.603 110.84 112.324 110.836 111.509 111.909C110.734 112.701 110.072 113.595 109.541 114.568C109.359 114.988 109.217 115.424 109.117 115.871C109.092 115.747 109.092 115.619 109.117 115.496C109.16 115.153 109.253 114.819 109.391 114.503C109.887 113.489 110.544 112.561 111.336 111.756C111.552 111.509 111.798 111.291 112.07 111.107C112.333 110.942 112.624 110.827 112.929 110.768C113.429 110.67 113.937 110.624 114.446 110.631C114.913 110.6 115.381 110.636 115.838 110.735Z" fill="#EB996E"/>
<path id="Vector_172" d="M116.867 118.622C116.794 118.57 116.726 118.51 116.665 118.444L116.104 117.932C115.398 117.304 114.656 116.718 113.881 116.177H113.934L111.719 116.407L111.8 116.318C111.795 116.498 111.769 116.677 111.723 116.851C111.683 117.046 111.585 117.225 111.441 117.363C111.354 117.431 111.248 117.471 111.138 117.476C111.037 117.498 110.933 117.498 110.832 117.476C110.62 117.431 110.433 117.311 110.303 117.137C110.27 117.095 110.242 117.049 110.219 117L110.198 116.964L110.323 117.02L110.255 117.044L109.964 117.125C109.864 117.151 109.761 117.17 109.658 117.182C109.604 117.186 109.55 117.186 109.496 117.182C109.426 117.184 109.355 117.166 109.295 117.129C109.203 117.047 109.135 116.943 109.097 116.827C109.061 116.725 109.032 116.621 109.008 116.516C108.963 116.308 108.931 116.098 108.912 115.887L109.033 115.983C108.881 116.008 108.725 115.991 108.582 115.932C108.44 115.874 108.316 115.777 108.226 115.653C108.132 115.522 108.089 115.361 108.105 115.201C108.126 115.063 108.161 114.928 108.21 114.797C108.41 114.27 108.646 113.756 108.916 113.26L109.799 112.05L110.372 111.256C110.548 110.989 110.751 110.742 110.977 110.517C111.22 110.305 111.502 110.143 111.808 110.041C112.105 109.954 112.414 109.91 112.724 109.912L116.084 109.755H116.112C116.309 109.8 116.501 109.865 116.685 109.949C116.886 110.027 117.056 110.168 117.169 110.352L117.052 110.308C117.237 110.236 117.437 110.211 117.634 110.235C117.831 110.259 118.019 110.331 118.182 110.445C118.465 110.678 118.646 111.012 118.686 111.377L118.662 111.328L121.28 114.011L121.986 114.753C122.072 114.836 122.15 114.927 122.22 115.023C122.124 114.951 122.033 114.872 121.95 114.785L121.215 114.079L118.545 111.449V111.429V111.401C118.503 111.086 118.344 110.798 118.101 110.594C117.962 110.5 117.803 110.442 117.636 110.423C117.469 110.405 117.301 110.428 117.145 110.489L117.064 110.517L117.024 110.441C116.922 110.304 116.782 110.202 116.621 110.146C116.448 110.071 116.268 110.013 116.084 109.973H116.112L112.748 110.15C112.458 110.145 112.17 110.186 111.893 110.271C111.615 110.361 111.36 110.508 111.142 110.703C110.927 110.916 110.735 111.151 110.57 111.405L109.968 112.147L109.085 113.357C108.82 113.841 108.588 114.343 108.391 114.858C108.345 114.978 108.312 115.102 108.294 115.229C108.284 115.338 108.314 115.447 108.379 115.536C108.446 115.625 108.535 115.695 108.638 115.737C108.741 115.78 108.854 115.794 108.964 115.778H109.077V115.887C109.095 116.089 109.126 116.289 109.17 116.488C109.194 116.664 109.262 116.832 109.367 116.976C109.397 116.982 109.427 116.982 109.456 116.976C109.5 116.98 109.545 116.98 109.589 116.976C109.683 116.964 109.776 116.947 109.868 116.923C109.962 116.905 110.055 116.88 110.146 116.851L110.21 116.827L110.336 116.883V116.915C110.355 116.953 110.378 116.988 110.404 117.02C110.502 117.155 110.645 117.25 110.808 117.286C110.887 117.305 110.97 117.305 111.05 117.286C111.124 117.283 111.196 117.258 111.255 117.214C111.459 116.959 111.565 116.64 111.554 116.314V116.234H111.626L113.845 116.032H113.873H113.894C114.665 116.589 115.398 117.197 116.088 117.851C116.326 118.081 116.492 118.255 116.625 118.396C116.716 118.459 116.798 118.535 116.867 118.622Z" fill="#EB996E"/>
<path id="Vector_173" d="M105.099 123.031C105.099 123.031 90.7536 118.517 86.2516 117.065C78.4941 114.552 73.4152 117.093 71.8137 119.889C69.7361 123.487 74.7182 130.511 76.6545 132.124C82.3426 136.904 92.0889 137.55 92.0889 137.55L127.141 137.481L116.906 123.608L105.099 123.031Z" fill="#003366"/>
<path id="Vector_174" d="M106.607 128.626C100.768 129.307 94.8513 128.502 89.406 126.286C88.4728 125.865 87.5118 125.508 86.5297 125.217C85.564 124.974 84.5631 124.903 83.5727 125.008C82.7901 125.092 81.9591 125.33 81.479 125.956C80.7812 126.879 81.1402 128.186 81.5315 129.28C81.9833 130.554 82.4593 131.866 83.3468 132.89C84.3876 134.1 85.8963 134.77 87.4091 135.246C90.3701 136.178 93.4965 136.456 96.5947 136.569L107.249 135.988L106.607 128.626Z" fill="#E0E0E0"/>
<path id="Vector_175" d="M105.031 135.932C104.735 135.708 104.479 135.435 104.276 135.125C103.754 134.396 103.381 133.569 103.181 132.695C102.981 131.82 102.957 130.914 103.11 130.03C103.154 129.663 103.264 129.306 103.433 128.977C103.469 128.977 103.348 129.38 103.268 130.054C103.052 131.804 103.456 133.574 104.409 135.056C104.772 135.597 105.059 135.904 105.031 135.932Z" fill="#263238"/>
<path id="Vector_176" d="M86.0413 125.222C86.1128 125.307 86.1688 125.404 86.2067 125.508C86.3254 125.783 86.4185 126.068 86.485 126.359C86.7145 127.333 86.6743 128.351 86.3687 129.303C86.063 130.256 85.5035 131.107 84.7504 131.765C84.5254 131.962 84.2823 132.138 84.0242 132.289C83.8387 132.394 83.7338 132.439 83.7257 132.427C83.7176 132.414 84.1291 132.16 84.6414 131.648C85.3365 130.983 85.8549 130.155 86.15 129.24C86.4451 128.324 86.5075 127.349 86.3317 126.404C86.1986 125.665 86.005 125.238 86.0413 125.222Z" fill="#263238"/>
<path id="Vector_177" d="M104.922 130.401C104.375 130.574 103.792 130.6 103.231 130.478C103.231 130.413 103.603 130.349 104.071 130.324C104.538 130.3 104.918 130.337 104.922 130.401Z" fill="#263238"/>
<path id="Vector_178" d="M104.599 133.31C104.623 133.362 104.413 133.504 104.114 133.504C103.816 133.504 103.606 133.362 103.634 133.31C103.663 133.258 103.868 133.282 104.114 133.278C104.361 133.274 104.574 133.249 104.599 133.31Z" fill="#263238"/>
<path id="Vector_179" d="M141.699 122.148C140.868 119.792 140.727 116.322 135.596 114.656C130.464 112.99 126.576 116.181 123.937 117.291C121.299 118.4 106.873 126.311 106.873 126.311C106.873 126.311 104.154 131.152 104.929 133.298C105.703 135.444 109.217 137.55 109.217 137.55H125.353C129.516 137.55 137.262 137.413 137.262 137.413C138.297 135.715 139.224 133.954 140.037 132.14L140.179 131.446C140.174 130.893 142.53 124.512 141.699 122.148Z" fill="#003366"/>
<path id="Vector_180" d="M132.76 134.412C132.741 134.493 132.7 134.568 132.643 134.63C132.485 134.81 132.306 134.971 132.111 135.11C131.393 135.605 130.63 136.032 129.831 136.384C129.283 136.641 128.72 136.863 128.145 137.05C127.486 137.251 126.811 137.397 126.128 137.486C124.553 137.647 122.97 137.709 121.388 137.671C118.032 137.728 114.99 137.853 112.787 137.829C111.686 137.829 110.791 137.776 110.177 137.712C109.942 137.691 109.707 137.657 109.475 137.611C109.393 137.603 109.311 137.584 109.233 137.554C109.233 137.534 109.572 137.591 110.185 137.623C110.799 137.655 111.686 137.683 112.787 137.671C114.986 137.671 118.032 137.502 121.384 137.449C122.958 137.484 124.532 137.428 126.1 137.28C126.782 137.202 127.457 137.068 128.117 136.876C128.687 136.701 129.246 136.491 129.791 136.247C130.589 135.909 131.357 135.504 132.086 135.037C132.282 134.911 132.465 134.765 132.631 134.601C132.724 134.488 132.748 134.404 132.76 134.412Z" fill="#263238"/>
<path id="Vector_181" d="M109.218 137.554C109.145 137.52 109.073 137.483 109.004 137.441C108.867 137.36 108.665 137.239 108.403 137.066C107.643 136.573 106.933 136.008 106.281 135.379C105.802 134.928 105.394 134.407 105.071 133.834C104.739 133.117 104.656 132.309 104.833 131.539C105.225 129.706 105.882 127.939 106.781 126.295V126.27H106.806C109.448 124.818 112.478 123.164 115.794 121.385C117.452 120.498 119.178 119.578 120.969 118.65C121.869 118.19 122.773 117.722 123.725 117.291C124.677 116.859 125.576 116.363 126.524 115.883C127.834 115.166 129.238 114.637 130.695 114.313C131.41 114.17 132.137 114.103 132.866 114.116C134.968 114.196 136.995 114.918 138.675 116.185C139.187 116.606 139.639 117.094 140.018 117.637C140.38 118.163 140.679 118.729 140.91 119.324C141.136 119.909 141.313 120.502 141.466 121.079C141.654 121.638 141.807 122.207 141.926 122.785C141.997 123.892 141.905 125.004 141.652 126.085C141.442 127.113 141.188 128.074 140.934 128.969C140.805 129.417 140.68 129.849 140.555 130.268C140.428 130.666 140.323 131.07 140.24 131.478C140.184 131.741 140.139 131.958 140.095 132.172C139.658 133.593 139.036 134.949 138.243 136.206C137.963 136.654 137.632 137.068 137.259 137.441C137.277 137.411 137.297 137.382 137.319 137.356L137.513 137.126C137.761 136.812 137.993 136.484 138.207 136.146C138.971 134.882 139.572 133.527 139.994 132.112C140.034 131.898 140.079 131.68 140.131 131.418C140.209 131 140.313 130.588 140.442 130.183C140.559 129.78 140.684 129.332 140.809 128.884C141.055 127.989 141.305 127.033 141.507 126.008C141.748 124.95 141.834 123.863 141.761 122.781C141.643 122.212 141.489 121.652 141.301 121.103C141.132 120.526 140.97 119.941 140.744 119.368C140.524 118.784 140.238 118.226 139.893 117.706C139.524 117.18 139.086 116.707 138.59 116.298C137.511 115.482 136.275 114.899 134.959 114.584C134.284 114.408 133.591 114.309 132.894 114.289C132.182 114.277 131.47 114.342 130.772 114.483C129.336 114.803 127.952 115.324 126.661 116.032C125.717 116.512 124.806 117.04 123.837 117.448C122.869 117.855 121.99 118.343 121.094 118.799C119.303 119.723 117.577 120.639 115.915 121.522L106.915 126.363L106.951 126.331C106.048 127.96 105.385 129.712 104.982 131.531C104.806 132.273 104.878 133.052 105.188 133.75C105.499 134.315 105.892 134.831 106.354 135.282C106.995 135.913 107.691 136.487 108.431 136.997L109.016 137.4L109.218 137.554Z" fill="#263238"/>
<path id="Vector_182" d="M135.475 131.571C135.475 131.571 140.283 132.144 139.856 134.496C139.428 136.848 137.839 137.639 137.839 137.639L124.776 137.667C124.776 137.667 132.594 137.126 135.475 131.571Z" fill="#E0E0E0"/>
<path id="Vector_183" d="M135.943 130.426C135.938 130.656 135.889 130.884 135.797 131.095C135.616 131.62 135.352 132.111 135.015 132.552C134.56 133.196 133.919 133.687 133.179 133.96C133.135 133.895 134.075 133.411 134.837 132.415C135.6 131.418 135.87 130.402 135.943 130.426Z" fill="#263238"/>
<path id="Vector_184" d="M134.273 131.35C134.338 131.35 134.273 132.156 133.809 133.024C133.575 133.563 133.215 134.039 132.76 134.412C132.712 134.367 133.184 133.758 133.607 132.923C134.031 132.088 134.213 131.342 134.273 131.35Z" fill="#263238"/>
<path id="Vector_185" d="M140.405 136.985C140.369 136.985 140.68 136.368 141.059 135.372C142.041 132.731 142.365 129.891 142.003 127.098C141.862 126.029 141.696 125.379 141.736 125.371C141.804 125.514 141.854 125.664 141.886 125.819C142.001 126.232 142.092 126.65 142.16 127.073C142.619 129.893 142.289 132.785 141.204 135.428C141.043 135.826 140.86 136.216 140.655 136.594C140.587 136.733 140.503 136.865 140.405 136.985Z" fill="#263238"/>
<g id="Group_24" opacity="0.3">
<path id="Vector_186" d="M137.686 130.301C137.654 129.986 137.529 129.611 137.214 129.546C136.835 129.47 136.573 129.905 136.407 130.265C134.761 134.097 129.332 137.074 125.156 137.477C127.183 137.472 129.206 137.307 131.207 136.985C132.901 136.719 134.487 135.986 135.786 134.867C136.433 134.304 136.941 133.598 137.27 132.806C137.6 132.014 137.742 131.157 137.686 130.301Z" fill="black"/>
</g>
<path id="Vector_187" d="M105.858 125.089C104.29 124.572 102.772 123.915 101.323 123.124C102.119 123.347 102.892 123.641 103.635 124.003C104.407 124.298 105.15 124.661 105.858 125.089Z" fill="#263238"/>
<g id="Group_25" opacity="0.2">
<path id="Vector_188" d="M110.517 123.072C104.296 121.88 98.0529 120.822 91.7867 119.897L87.1152 121.373C88.4263 123.794 91.0121 125.355 93.6988 125.996C96.3855 126.638 99.1932 126.485 101.944 126.234C104.97 125.952 108.084 125.533 110.719 124.012C110.92 123.895 111.146 123.721 111.122 123.491C111.098 123.261 110.775 123.12 110.517 123.072Z" fill="black"/>
</g>
<path id="Vector_189" d="M79.8856 104.535L87.7238 121.881C87.8788 122.236 88.1328 122.539 88.4554 122.754C88.7781 122.969 89.1557 123.086 89.5432 123.091L112.408 123.386L115.289 121.837L110.774 121.486L103.751 104.623C103.641 104.361 103.456 104.136 103.22 103.978C102.983 103.819 102.705 103.734 102.42 103.732L80.515 103.562C80.3998 103.563 80.2865 103.591 80.1854 103.646C80.0843 103.701 79.9985 103.781 79.9359 103.877C79.8734 103.974 79.836 104.085 79.8272 104.2C79.8184 104.315 79.8385 104.43 79.8856 104.535Z" fill="#E0E0E0"/>
<path id="Vector_190" d="M110.105 123.358C110.062 123.299 110.027 123.236 110 123.168L109.738 122.607L108.818 120.53C108.056 118.771 107.015 116.334 105.898 113.632C104.78 110.929 103.796 108.432 103.11 106.653C102.767 105.757 102.497 105.039 102.323 104.523C102.243 104.289 102.178 104.095 102.122 103.938C102.095 103.871 102.077 103.8 102.069 103.728C102.109 103.789 102.141 103.854 102.166 103.922C102.231 104.075 102.307 104.265 102.404 104.49C102.618 105.019 102.908 105.729 103.255 106.596C103.998 108.395 104.998 110.832 106.103 113.523C107.209 116.213 108.217 118.646 108.964 120.449C109.31 121.313 109.601 122.023 109.815 122.555L110.037 123.128C110.068 123.202 110.091 123.279 110.105 123.358Z" fill="#263238"/>
<path id="Vector_191" d="M95.9216 112.942C95.9216 113.164 95.8559 113.38 95.7326 113.565C95.6094 113.749 95.4343 113.893 95.2293 113.978C95.0244 114.063 94.7989 114.085 94.5814 114.042C94.3638 113.998 94.164 113.892 94.0072 113.735C93.8503 113.578 93.7435 113.378 93.7003 113.161C93.657 112.943 93.6792 112.718 93.7641 112.513C93.849 112.308 93.9927 112.133 94.1771 112.009C94.3616 111.886 94.5784 111.82 94.8002 111.82C95.0976 111.82 95.3829 111.938 95.5932 112.149C95.8035 112.359 95.9216 112.644 95.9216 112.942Z" fill="white"/>
</g>
<g id="Floor">
<path id="Vector_192" d="M173.099 179.895C173.099 179.955 135.618 180 89.4002 180C43.1819 180 5.69336 179.955 5.69336 179.895C5.69336 179.834 43.1658 179.79 89.4002 179.79C135.635 179.79 173.099 179.834 173.099 179.895Z" fill="#263238"/>
</g>
</g>
</svg>
