<svg width="235" height="226" viewBox="0 0 235 226" fill="none" xmlns="http://www.w3.org/2000/svg">
<g filter="url(#filter0_d_986_1265)">
<rect x="2" y="1" width="230.001" height="221.167" rx="110.583" fill="#E6EEF8"/>
<path d="M88.2738 158.167C92.0833 158.167 95.7367 156.657 98.4304 153.969C101.124 151.281 102.637 147.635 102.637 143.833C102.637 140.032 101.124 136.386 98.4304 133.698C95.7367 131.01 92.0833 129.5 88.2738 129.5C84.4643 129.5 80.8109 131.01 78.1172 133.698C75.4235 136.386 73.9102 140.032 73.9102 143.833C73.9102 147.635 75.4235 151.281 78.1172 153.969C80.8109 156.657 84.4643 158.167 88.2738 158.167ZM160.092 158.167C163.901 158.167 167.555 156.657 170.249 153.969C172.942 151.281 174.456 147.635 174.456 143.833C174.456 140.032 172.942 136.386 170.249 133.698C167.555 131.01 163.901 129.5 160.092 129.5C156.283 129.5 152.629 131.01 149.935 133.698C147.242 136.386 145.728 140.032 145.728 143.833C145.728 147.635 147.242 151.281 149.935 153.969C152.629 156.657 156.283 158.167 160.092 158.167Z" stroke="#5F93D0" stroke-width="4" stroke-miterlimit="1.5" stroke-linecap="round" stroke-linejoin="round"/>
<path d="M102.995 143.833H138.545V69.3C138.545 68.1596 138.091 67.0658 137.283 66.2594C136.475 65.453 135.379 65 134.236 65H38M71.3955 143.833H56.6727C56.1068 143.833 55.5465 143.722 55.0237 143.506C54.5009 143.29 54.0259 142.973 53.6257 142.574C53.2256 142.175 52.9082 141.701 52.6916 141.179C52.4751 140.657 52.3636 140.098 52.3636 139.533V104.417" stroke="#5F93D0" stroke-width="4" stroke-linecap="round"/>
<path d="M45.1816 86.5H73.9089" stroke="#5F93D0" stroke-width="4" stroke-linecap="round" stroke-linejoin="round"/>
<path d="M138.547 86.5H178.837C179.67 86.5002 180.485 86.7413 181.183 87.1941C181.882 87.6469 182.434 88.292 182.773 89.0513L195.628 117.919C195.873 118.467 196 119.06 196.001 119.66V139.533C196.001 140.098 195.89 140.657 195.673 141.179C195.457 141.701 195.139 142.175 194.739 142.574C194.339 142.973 193.864 143.29 193.341 143.506C192.819 143.722 192.258 143.833 191.692 143.833H178.047M138.547 143.833H145.729" stroke="#5F93D0" stroke-width="4" stroke-linecap="round"/>
</g>
<defs>
<filter id="filter0_d_986_1265" x="0.8" y="0.2" width="234.002" height="225.167" filterUnits="userSpaceOnUse" color-interpolation-filters="sRGB">
<feFlood flood-opacity="0" result="BackgroundImageFix"/>
<feColorMatrix in="SourceAlpha" type="matrix" values="0 0 0 0 0 0 0 0 0 0 0 0 0 0 0 0 0 0 127 0" result="hardAlpha"/>
<feOffset dx="0.8" dy="1.2"/>
<feGaussianBlur stdDeviation="1"/>
<feComposite in2="hardAlpha" operator="out"/>
<feColorMatrix type="matrix" values="0 0 0 0 0 0 0 0 0 0 0 0 0 0 0 0 0 0 0.25 0"/>
<feBlend mode="normal" in2="BackgroundImageFix" result="effect1_dropShadow_986_1265"/>
<feBlend mode="normal" in="SourceGraphic" in2="effect1_dropShadow_986_1265" result="shape"/>
</filter>
</defs>
</svg>
