<svg width="25" height="24" viewBox="0 0 25 24" fill="none" xmlns="http://www.w3.org/2000/svg">
<g id="chevron-right 2">
<path id="Vector" fill-rule="evenodd" clip-rule="evenodd" d="M7.46936 2.46839C7.53903 2.39854 7.6218 2.34313 7.71291 2.30532C7.80403 2.26751 7.90171 2.24805 8.00036 2.24805C8.09901 2.24805 8.1967 2.26751 8.28781 2.30532C8.37893 2.34313 8.4617 2.39854 8.53136 2.46839L17.5314 11.4684C17.6012 11.5381 17.6566 11.6208 17.6944 11.7119C17.7322 11.8031 17.7517 11.9007 17.7517 11.9994C17.7517 12.098 17.7322 12.1957 17.6944 12.2868C17.6566 12.378 17.6012 12.4607 17.5314 12.5304L8.53136 21.5304C8.39053 21.6712 8.19953 21.7503 8.00036 21.7503C7.8012 21.7503 7.61019 21.6712 7.46936 21.5304C7.32853 21.3896 7.24942 21.1986 7.24942 20.9994C7.24942 20.8002 7.32853 20.6092 7.46936 20.4684L15.9399 11.9994L7.46936 3.53039C7.39952 3.46072 7.3441 3.37796 7.30629 3.28684C7.26849 3.19572 7.24902 3.09804 7.24902 2.99939C7.24902 2.90074 7.26849 2.80305 7.30629 2.71194C7.3441 2.62082 7.39952 2.53806 7.46936 2.46839Z" fill="#FAFAFA"/>
</g>
</svg>
