<svg width="24" height="24" viewBox="0 0 24 24" fill="none" xmlns="http://www.w3.org/2000/svg">
<g id="chevron-right 2">
<path id="Vector" fill-rule="evenodd" clip-rule="evenodd" d="M6.96936 2.47034C7.03903 2.4005 7.1218 2.34508 7.21291 2.30727C7.30403 2.26946 7.40171 2.25 7.50036 2.25C7.59901 2.25 7.6967 2.26946 7.78781 2.30727C7.87893 2.34508 7.9617 2.4005 8.03136 2.47034L17.0314 11.4703C17.1012 11.54 17.1566 11.6228 17.1944 11.7139C17.2322 11.805 17.2517 11.9027 17.2517 12.0013C17.2517 12.1 17.2322 12.1977 17.1944 12.2888C17.1566 12.3799 17.1012 12.4627 17.0314 12.5323L8.03136 21.5323C7.89053 21.6732 7.69953 21.7523 7.50036 21.7523C7.3012 21.7523 7.11019 21.6732 6.96936 21.5323C6.82853 21.3915 6.74942 21.2005 6.74942 21.0013C6.74942 20.8022 6.82853 20.6112 6.96936 20.4703L15.4399 12.0013L6.96936 3.53234C6.89952 3.46267 6.8441 3.37991 6.80629 3.28879C6.76849 3.19767 6.74902 3.09999 6.74902 3.00134C6.74902 2.90269 6.76849 2.80501 6.80629 2.71389C6.8441 2.62277 6.89952 2.54001 6.96936 2.47034Z" fill="#0A0A0B"/>
</g>
</svg>
