<svg width="20" height="21" viewBox="0 0 20 21" fill="none" xmlns="http://www.w3.org/2000/svg">
<g id="clock 2">
<path id="Vector" d="M10 4.875C10 4.70924 9.93415 4.55027 9.81694 4.43306C9.69973 4.31585 9.54076 4.25 9.375 4.25C9.20924 4.25 9.05027 4.31585 8.93306 4.43306C8.81585 4.55027 8.75 4.70924 8.75 4.875V11.75C8.75004 11.8602 8.77919 11.9684 8.83451 12.0636C8.88982 12.1589 8.96934 12.2379 9.065 12.2925L13.44 14.7925C13.5836 14.8701 13.7518 14.8885 13.9087 14.8437C14.0657 14.7989 14.1988 14.6944 14.2798 14.5527C14.3608 14.4111 14.3831 14.2433 14.342 14.0854C14.301 13.9274 14.1997 13.7918 14.06 13.7075L10 11.3875V4.875Z" fill="black"/>
<path id="Vector_2" d="M10 20.5C12.6522 20.5 15.1957 19.4464 17.0711 17.5711C18.9464 15.6957 20 13.1522 20 10.5C20 7.84784 18.9464 5.3043 17.0711 3.42893C15.1957 1.55357 12.6522 0.5 10 0.5C7.34784 0.5 4.8043 1.55357 2.92893 3.42893C1.05357 5.3043 0 7.84784 0 10.5C0 13.1522 1.05357 15.6957 2.92893 17.5711C4.8043 19.4464 7.34784 20.5 10 20.5ZM18.75 10.5C18.75 12.8206 17.8281 15.0462 16.1872 16.6872C14.5462 18.3281 12.3206 19.25 10 19.25C7.67936 19.25 5.45376 18.3281 3.81282 16.6872C2.17187 15.0462 1.25 12.8206 1.25 10.5C1.25 8.17936 2.17187 5.95376 3.81282 4.31282C5.45376 2.67187 7.67936 1.75 10 1.75C12.3206 1.75 14.5462 2.67187 16.1872 4.31282C17.8281 5.95376 18.75 8.17936 18.75 10.5Z" fill="black"/>
</g>
</svg>
