<svg width="20" height="21" viewBox="0 0 20 21" fill="none" xmlns="http://www.w3.org/2000/svg">
<g id="pencil-square 1">
<path id="Vector" d="M19.3771 2.92549C19.4939 3.04265 19.5595 3.20132 19.5595 3.36674C19.5595 3.53216 19.4939 3.69084 19.3771 3.80799L18.0734 5.11299L15.5734 2.61299L16.8771 1.30799C16.9943 1.19082 17.1533 1.125 17.319 1.125C17.4847 1.125 17.6437 1.19082 17.7609 1.30799L19.3771 2.92424V2.92549ZM17.1896 5.99549L14.6896 3.49549L6.17339 12.013C6.1046 12.0818 6.05281 12.1657 6.02214 12.258L5.01589 15.2755C4.99765 15.3305 4.99505 15.3895 5.00841 15.4459C5.02177 15.5023 5.05055 15.5539 5.09153 15.5949C5.13251 15.6358 5.18409 15.6646 5.24048 15.678C5.29688 15.6913 5.35588 15.6887 5.41089 15.6705L8.42839 14.6642C8.5206 14.6339 8.60448 14.5826 8.67339 14.5142L17.1896 5.99549Z" fill="black"/>
<path id="Vector_2" fill-rule="evenodd" clip-rule="evenodd" d="M1.25 17.375C1.25 17.8723 1.44754 18.3492 1.79917 18.7008C2.15081 19.0525 2.62772 19.25 3.125 19.25H16.875C17.3723 19.25 17.8492 19.0525 18.2008 18.7008C18.5525 18.3492 18.75 17.8723 18.75 17.375V9.875C18.75 9.70924 18.6842 9.55027 18.5669 9.43306C18.4497 9.31585 18.2908 9.25 18.125 9.25C17.9592 9.25 17.8003 9.31585 17.6831 9.43306C17.5658 9.55027 17.5 9.70924 17.5 9.875V17.375C17.5 17.5408 17.4342 17.6997 17.3169 17.8169C17.1997 17.9342 17.0408 18 16.875 18H3.125C2.95924 18 2.80027 17.9342 2.68306 17.8169C2.56585 17.6997 2.5 17.5408 2.5 17.375V3.625C2.5 3.45924 2.56585 3.30027 2.68306 3.18306C2.80027 3.06585 2.95924 3 3.125 3H11.25C11.4158 3 11.5747 2.93415 11.6919 2.81694C11.8092 2.69973 11.875 2.54076 11.875 2.375C11.875 2.20924 11.8092 2.05027 11.6919 1.93306C11.5747 1.81585 11.4158 1.75 11.25 1.75H3.125C2.62772 1.75 2.15081 1.94754 1.79917 2.29917C1.44754 2.65081 1.25 3.12772 1.25 3.625V17.375Z" fill="black"/>
</g>
</svg>
